<?xml version="1.0" encoding="UTF-8" standalone="no"?>
<!DOCTYPE svg PUBLIC "-//W3C//DTD SVG 1.1//EN"
 "http://www.w3.org/Graphics/SVG/1.1/DTD/svg11.dtd">
<!-- Generated by graphviz version 2.36.0 (20140111.2315)
 -->
<!-- Title: nicolive::FetchFavoritedNowWaku Pages: 1 -->
<svg width="128pt" height="152pt"
 viewBox="0.00 0.00 128.00 152.00" xmlns="http://www.w3.org/2000/svg" xmlns:xlink="http://www.w3.org/1999/xlink">
<g id="graph0" class="graph" transform="scale(1 1) rotate(0) translate(4 148)">
<title>nicolive::FetchFavoritedNowWaku</title>
<polygon fill="white" stroke="none" points="-4,4 -4,-148 124,-148 124,4 -4,4"/>
<!-- Node1 -->
<g id="node1" class="node"><title>Node1</title>
<polygon fill="#bfbfbf" stroke="black" points="-0.5,-1 -0.5,-31 120.5,-31 120.5,-1 -0.5,-1"/>
<text text-anchor="start" x="7.5" y="-19" font-family="Helvetica,sans-Serif" font-size="10.00">nicolive::FetchFavorited</text>
<text text-anchor="middle" x="60" y="-8" font-family="Helvetica,sans-Serif" font-size="10.00">NowWaku</text>
</g>
<!-- Node2 -->
<g id="node2" class="node"><title>Node2</title>
<g id="a_node2"><a xlink:href="classnicolive_1_1HttpGetter.html" target="_top" xlink:title="APIを取得するのに使用されている抽象クラス。 ">
<polygon fill="white" stroke="black" points="9.5,-68.5 9.5,-87.5 110.5,-87.5 110.5,-68.5 9.5,-68.5"/>
<text text-anchor="middle" x="60" y="-75.5" font-family="Helvetica,sans-Serif" font-size="10.00">nicolive::HttpGetter</text>
</a>
</g>
</g>
<!-- Node2&#45;&gt;Node1 -->
<g id="edge1" class="edge"><title>Node2&#45;&gt;Node1</title>
<path fill="none" stroke="midnightblue" d="M60,-58.3707C60,-49.5849 60,-39.2721 60,-31.1408"/>
<polygon fill="midnightblue" stroke="midnightblue" points="56.5001,-58.4034 60,-68.4035 63.5001,-58.4035 56.5001,-58.4034"/>
</g>
<!-- Node3 -->
<g id="node3" class="node"><title>Node3</title>
<polygon fill="white" stroke="#bfbfbf" points="33.5,-124.5 33.5,-143.5 86.5,-143.5 86.5,-124.5 33.5,-124.5"/>
<text text-anchor="middle" x="60" y="-131.5" font-family="Helvetica,sans-Serif" font-size="10.00">QObject</text>
</g>
<!-- Node3&#45;&gt;Node2 -->
<g id="edge2" class="edge"><title>Node3&#45;&gt;Node2</title>
<path fill="none" stroke="midnightblue" d="M60,-113.805C60,-104.91 60,-94.7798 60,-87.7511"/>
<polygon fill="midnightblue" stroke="midnightblue" points="56.5001,-114.083 60,-124.083 63.5001,-114.083 56.5001,-114.083"/>
</g>
</g>
</svg>
