<?xml version="1.0" encoding="UTF-8" standalone="no"?>
<!DOCTYPE svg PUBLIC "-//W3C//DTD SVG 1.1//EN"
 "http://www.w3.org/Graphics/SVG/1.1/DTD/svg11.dtd">
<!-- Generated by graphviz version 2.36.0 (20140111.2315)
 -->
<!-- Title: nicolive::HttpGetter Pages: 1 -->
<!--zoomable 610 -->
<svg id="main" version="1.1" xmlns="http://www.w3.org/2000/svg" xmlns:xlink="http://www.w3.org/1999/xlink" xml:space="preserve" onload="init(evt)">
<style type="text/css"><![CDATA[
.edge:hover path { stroke: red; }
.edge:hover polygon { stroke: red; fill: red; }
]]></style>
<script type="text/javascript"><![CDATA[
var edges = document.getElementsByTagName('g');
if (edges && edges.length) {
  for (var i=0;i<edges.length;i++) {
    if (edges[i].id.substr(0,4)=='edge') {
      edges[i].setAttribute('class','edge');
    }
  }
}
]]></script>
        <defs>
                <circle id="rim" cx="0" cy="0" r="7"/>
                <circle id="rim2" cx="0" cy="0" r="3.5"/>
                <g id="zoomPlus">
                        <use xlink:href="#rim" fill="#404040">
                                <set attributeName="fill" to="#808080" begin="zoomplus.mouseover" end="zoomplus.mouseout"/>
                        </use>
                        <path d="M-4,0h8M0,-4v8" fill="none" stroke="white" stroke-width="1.5" pointer-events="none"/>
                </g>
                <g id="zoomMin">
                        <use xlink:href="#rim" fill="#404040">
                                <set attributeName="fill" to="#808080" begin="zoomminus.mouseover" end="zoomminus.mouseout"/>
                        </use>
                        <path d="M-4,0h8" fill="none" stroke="white" stroke-width="1.5" pointer-events="none"/>
                </g>
                <g id="dirArrow">
                        <path fill="none" stroke="white" stroke-width="1.5" d="M0,-3.0v7 M-2.5,-0.5L0,-3.0L2.5,-0.5"/>
                </g>
               <g id="resetDef">
                       <use xlink:href="#rim2" fill="#404040">
                               <set attributeName="fill" to="#808080" begin="reset.mouseover" end="reset.mouseout"/>
                       </use>
               </g>
        </defs>

<script type="text/javascript">
var viewWidth = 372;
var viewHeight = 610;
var sectionId = 'dynsection-0';
</script>
<script xlink:href="svgpan.js"/>
<svg id="graph" class="graph">
<g id="viewport">
<title>nicolive::HttpGetter</title>
<polygon fill="white" stroke="none" points="-4,4 -4,-606 368,-606 368,4 -4,4"/>
<!-- Node1 -->
<g id="node1" class="node"><title>Node1</title>
<polygon fill="#bfbfbf" stroke="black" points="90.5,-288.5 90.5,-307.5 191.5,-307.5 191.5,-288.5 90.5,-288.5"/>
<text text-anchor="middle" x="141" y="-295.5" font-family="Helvetica,sans-Serif" font-size="10.00">nicolive::HttpGetter</text>
</g>
<!-- Node3 -->
<g id="node3" class="node"><title>Node3</title>
<g id="a_node3"><a xlink:href="classnicolive_1_1AlertAdmin.html" target="_top" xlink:title="ニコ生アラート取得のために必要な情報と、登録コミュニティを取得します。 ">
<polygon fill="white" stroke="black" points="244,-582.5 244,-601.5 348,-601.5 348,-582.5 244,-582.5"/>
<text text-anchor="middle" x="296" y="-589.5" font-family="Helvetica,sans-Serif" font-size="10.00">nicolive::AlertAdmin</text>
</a>
</g>
</g>
<!-- Node1&#45;&gt;Node3 -->
<g id="edge2" class="edge"><title>Node1&#45;&gt;Node3</title>
<path fill="none" stroke="midnightblue" d="M142.131,-317.855C143.574,-368.116 154.514,-501.455 228,-573 232.505,-577.386 237.944,-580.774 243.752,-583.388"/>
<polygon fill="midnightblue" stroke="midnightblue" points="145.627,-317.624 141.941,-307.691 138.628,-317.754 145.627,-317.624"/>
</g>
<!-- Node4 -->
<g id="node4" class="node"><title>Node4</title>
<g id="a_node4"><a xlink:href="classnicolive_1_1AlertLogin.html" target="_top" xlink:title="ニコ生アラートのログインをして AlertAdmin に必要なチケットを取得します ">
<polygon fill="white" stroke="black" points="246.5,-544.5 246.5,-563.5 345.5,-563.5 345.5,-544.5 246.5,-544.5"/>
<text text-anchor="middle" x="296" y="-551.5" font-family="Helvetica,sans-Serif" font-size="10.00">nicolive::AlertLogin</text>
</a>
</g>
</g>
<!-- Node1&#45;&gt;Node4 -->
<g id="edge3" class="edge"><title>Node1&#45;&gt;Node4</title>
<path fill="none" stroke="midnightblue" d="M143.287,-317.839C147.316,-363.176 163.607,-475.07 228,-535 233.222,-539.86 239.595,-543.489 246.313,-546.196"/>
<polygon fill="midnightblue" stroke="midnightblue" points="146.772,-317.516 142.505,-307.819 139.794,-318.061 146.772,-317.516"/>
</g>
<!-- Node5 -->
<g id="node5" class="node"><title>Node5</title>
<g id="a_node5"><a xlink:href="classnicolive_1_1CommPostKey.html" target="_top" xlink:title="コメント受信に必要なポストキーを取得するクラス。 ">
<polygon fill="white" stroke="black" points="235,-506.5 235,-525.5 357,-525.5 357,-506.5 235,-506.5"/>
<text text-anchor="middle" x="296" y="-513.5" font-family="Helvetica,sans-Serif" font-size="10.00">nicolive::CommPostKey</text>
</a>
</g>
</g>
<!-- Node1&#45;&gt;Node5 -->
<g id="edge4" class="edge"><title>Node1&#45;&gt;Node5</title>
<path fill="none" stroke="midnightblue" d="M144.805,-317.595C151.561,-357.464 172.492,-448.355 228,-497 232.456,-500.905 237.66,-504.011 243.164,-506.481"/>
<polygon fill="midnightblue" stroke="midnightblue" points="148.24,-316.909 143.228,-307.574 141.325,-317.997 148.24,-316.909"/>
</g>
<!-- Node6 -->
<g id="node6" class="node"><title>Node6</title>
<g id="a_node6"><a xlink:href="classnicolive_1_1CommunityInfo.html" target="_top" xlink:title="コミュニティIDからコミュニティの情報を取得するクラスです。 ">
<polygon fill="white" stroke="black" points="235,-468.5 235,-487.5 357,-487.5 357,-468.5 235,-468.5"/>
<text text-anchor="middle" x="296" y="-475.5" font-family="Helvetica,sans-Serif" font-size="10.00">nicolive::CommunityInfo</text>
</a>
</g>
</g>
<!-- Node1&#45;&gt;Node6 -->
<g id="edge5" class="edge"><title>Node1&#45;&gt;Node6</title>
<path fill="none" stroke="midnightblue" d="M147.056,-317.767C156.799,-351.818 181.445,-421.486 228,-459 232.801,-462.869 238.349,-465.95 244.155,-468.405"/>
<polygon fill="midnightblue" stroke="midnightblue" points="150.315,-316.413 144.313,-307.682 143.561,-318.25 150.315,-316.413"/>
</g>
<!-- Node7 -->
<g id="node7" class="node"><title>Node7</title>
<g id="a_node7"><a xlink:href="classnicolive_1_1ConfigureStream.html" target="_top" xlink:title="ConfigureStream に値を送信するクラスです。 枠を取った後、放送を開始したり終了したりすることができます。 ">
<polygon fill="white" stroke="black" points="231.5,-430.5 231.5,-449.5 360.5,-449.5 360.5,-430.5 231.5,-430.5"/>
<text text-anchor="middle" x="296" y="-437.5" font-family="Helvetica,sans-Serif" font-size="10.00">nicolive::ConfigureStream</text>
</a>
</g>
</g>
<!-- Node1&#45;&gt;Node7 -->
<g id="edge6" class="edge"><title>Node1&#45;&gt;Node7</title>
<path fill="none" stroke="midnightblue" d="M150.134,-316.893C162.793,-344.043 189.786,-393.807 228,-421 233.418,-424.856 239.601,-427.931 245.969,-430.385"/>
<polygon fill="midnightblue" stroke="midnightblue" points="153.287,-315.372 145.991,-307.69 146.904,-318.245 153.287,-315.372"/>
</g>
<!-- Node8 -->
<g id="node8" class="node"><title>Node8</title>
<g id="a_node8"><a xlink:href="classnicolive_1_1Extend.html" target="_top" xlink:title="ニコ生放送の延長を実行するクラス。 ">
<polygon fill="white" stroke="black" points="253,-392.5 253,-411.5 339,-411.5 339,-392.5 253,-392.5"/>
<text text-anchor="middle" x="296" y="-399.5" font-family="Helvetica,sans-Serif" font-size="10.00">nicolive::Extend</text>
</a>
</g>
</g>
<!-- Node1&#45;&gt;Node8 -->
<g id="edge7" class="edge"><title>Node1&#45;&gt;Node8</title>
<path fill="none" stroke="midnightblue" d="M155.355,-315.749C170.794,-335.052 197.963,-365.484 228,-383 235.624,-387.446 244.349,-390.902 252.925,-393.57"/>
<polygon fill="midnightblue" stroke="midnightblue" points="158.027,-313.485 149.118,-307.75 152.507,-317.789 158.027,-313.485"/>
</g>
<!-- Node9 -->
<g id="node9" class="node"><title>Node9</title>
<g id="a_node9"><a xlink:href="classnicolive_1_1ExtendInfo.html" target="_top" xlink:title="ニコ生放送の延長情報を取得するクラス。 ">
<polygon fill="white" stroke="black" points="244.5,-354.5 244.5,-373.5 347.5,-373.5 347.5,-354.5 244.5,-354.5"/>
<text text-anchor="middle" x="296" y="-361.5" font-family="Helvetica,sans-Serif" font-size="10.00">nicolive::ExtendInfo</text>
</a>
</g>
</g>
<!-- Node1&#45;&gt;Node9 -->
<g id="edge8" class="edge"><title>Node1&#45;&gt;Node9</title>
<path fill="none" stroke="midnightblue" d="M166.372,-312.739C183.249,-322.517 206.467,-335.133 228,-344 237.541,-347.929 248.133,-351.454 258.025,-354.409"/>
<polygon fill="midnightblue" stroke="midnightblue" points="168.093,-309.691 157.699,-307.641 164.546,-315.726 168.093,-309.691"/>
</g>
<!-- Node10 -->
<g id="node10" class="node"><title>Node10</title>
<g id="a_node10"><a xlink:href="classnicolive_1_1FetchFavoritedNowWaku.html" target="_top" xlink:title="お気に入り登録しているコミュニティ等で、現在放送されている放送を取得します。 ">
<polygon fill="white" stroke="black" points="235.5,-305 235.5,-335 356.5,-335 356.5,-305 235.5,-305"/>
<text text-anchor="start" x="243.5" y="-323" font-family="Helvetica,sans-Serif" font-size="10.00">nicolive::FetchFavorited</text>
<text text-anchor="middle" x="296" y="-312" font-family="Helvetica,sans-Serif" font-size="10.00">NowWaku</text>
</a>
</g>
</g>
<!-- Node1&#45;&gt;Node10 -->
<g id="edge9" class="edge"><title>Node1&#45;&gt;Node10</title>
<path fill="none" stroke="midnightblue" d="M201.687,-306.582C212.773,-308.176 224.354,-309.842 235.435,-311.435"/>
<polygon fill="midnightblue" stroke="midnightblue" points="202.071,-303.102 191.675,-305.143 201.075,-310.03 202.071,-303.102"/>
</g>
<!-- Node11 -->
<g id="node11" class="node"><title>Node11</title>
<g id="a_node11"><a xlink:href="classnicolive_1_1HeartBeat.html" target="_top" xlink:title="来場者数やコメント数を取得するクラスです。 ">
<polygon fill="white" stroke="black" points="246,-266.5 246,-285.5 346,-285.5 346,-266.5 246,-266.5"/>
<text text-anchor="middle" x="296" y="-273.5" font-family="Helvetica,sans-Serif" font-size="10.00">nicolive::HeartBeat</text>
</a>
</g>
</g>
<!-- Node1&#45;&gt;Node11 -->
<g id="edge10" class="edge"><title>Node1&#45;&gt;Node11</title>
<path fill="none" stroke="midnightblue" d="M201.636,-289.425C216.266,-287.321 231.762,-285.093 245.836,-283.069"/>
<polygon fill="midnightblue" stroke="midnightblue" points="201.075,-285.97 191.675,-290.857 202.071,-292.898 201.075,-285.97"/>
</g>
<!-- Node12 -->
<g id="node12" class="node"><title>Node12</title>
<g id="a_node12"><a xlink:href="classnicolive_1_1LiveTag.html" target="_top" xlink:title="生放送のタグを取得するクラス。 ">
<polygon fill="white" stroke="black" points="251,-228.5 251,-247.5 341,-247.5 341,-228.5 251,-228.5"/>
<text text-anchor="middle" x="296" y="-235.5" font-family="Helvetica,sans-Serif" font-size="10.00">nicolive::LiveTag</text>
</a>
</g>
</g>
<!-- Node1&#45;&gt;Node12 -->
<g id="edge11" class="edge"><title>Node1&#45;&gt;Node12</title>
<path fill="none" stroke="midnightblue" d="M168.895,-283.736C185.6,-275.241 207.688,-264.659 228,-257 237.277,-253.502 247.485,-250.295 257.076,-247.553"/>
<polygon fill="midnightblue" stroke="midnightblue" points="167.019,-280.765 159.735,-288.458 170.227,-286.987 167.019,-280.765"/>
</g>
<!-- Node13 -->
<g id="node13" class="node"><title>Node13</title>
<g id="a_node13"><a xlink:href="classnicolive_1_1OwnerComment.html" target="_top" xlink:title="主コメントをするクラスです。 ">
<polygon fill="white" stroke="black" points="232.5,-190.5 232.5,-209.5 359.5,-209.5 359.5,-190.5 232.5,-190.5"/>
<text text-anchor="middle" x="296" y="-197.5" font-family="Helvetica,sans-Serif" font-size="10.00">nicolive::OwnerComment</text>
</a>
</g>
</g>
<!-- Node1&#45;&gt;Node13 -->
<g id="edge12" class="edge"><title>Node1&#45;&gt;Node13</title>
<path fill="none" stroke="midnightblue" d="M156.55,-280.489C172.367,-262.546 199.256,-235.066 228,-219 234.86,-215.166 242.556,-212.054 250.221,-209.544"/>
<polygon fill="midnightblue" stroke="midnightblue" points="153.58,-278.575 149.716,-288.44 158.889,-283.139 153.58,-278.575"/>
</g>
<!-- Node14 -->
<g id="node14" class="node"><title>Node14</title>
<g id="a_node14"><a xlink:href="classnicolive_1_1PlayerStatus.html" target="_top" xlink:title="PlayerStatus API から生放送の情報を取得するクラス。 ">
<polygon fill="white" stroke="black" points="240,-152.5 240,-171.5 352,-171.5 352,-152.5 240,-152.5"/>
<text text-anchor="middle" x="296" y="-159.5" font-family="Helvetica,sans-Serif" font-size="10.00">nicolive::PlayerStatus</text>
</a>
</g>
</g>
<!-- Node1&#45;&gt;Node14 -->
<g id="edge13" class="edge"><title>Node1&#45;&gt;Node14</title>
<path fill="none" stroke="midnightblue" d="M150.746,-279.302C163.857,-253.326 191.066,-206.629 228,-181 233.563,-177.14 239.898,-174.06 246.401,-171.602"/>
<polygon fill="midnightblue" stroke="midnightblue" points="147.521,-277.932 146.281,-288.454 153.812,-281.002 147.521,-277.932"/>
</g>
<!-- Node15 -->
<g id="node15" class="node"><title>Node15</title>
<g id="a_node15"><a xlink:href="classnicolive_1_1PublishStatus.html" target="_top" xlink:title="主コメントに必要なチケットを取得します。 ">
<polygon fill="white" stroke="black" points="238,-114.5 238,-133.5 354,-133.5 354,-114.5 238,-114.5"/>
<text text-anchor="middle" x="296" y="-121.5" font-family="Helvetica,sans-Serif" font-size="10.00">nicolive::PublishStatus</text>
</a>
</g>
</g>
<!-- Node1&#45;&gt;Node15 -->
<g id="edge14" class="edge"><title>Node1&#45;&gt;Node15</title>
<path fill="none" stroke="midnightblue" d="M147.42,-278.489C157.594,-245.525 182.716,-178.897 228,-143 232.927,-139.094 238.617,-135.991 244.556,-133.526"/>
<polygon fill="midnightblue" stroke="midnightblue" points="144.003,-277.704 144.535,-288.285 150.718,-279.681 144.003,-277.704"/>
</g>
<!-- Node16 -->
<g id="node16" class="node"><title>Node16</title>
<g id="a_node16"><a xlink:href="classnicolive_1_1StreamInfo.html" target="_top" xlink:title="枠の情報（タイトル、説明、コミュニティ）を取得するクラスです。 ">
<polygon fill="white" stroke="black" points="244,-76.5 244,-95.5 348,-95.5 348,-76.5 244,-76.5"/>
<text text-anchor="middle" x="296" y="-83.5" font-family="Helvetica,sans-Serif" font-size="10.00">nicolive::StreamInfo</text>
</a>
</g>
</g>
<!-- Node1&#45;&gt;Node16 -->
<g id="edge15" class="edge"><title>Node1&#45;&gt;Node16</title>
<path fill="none" stroke="midnightblue" d="M145.138,-278.19C152.388,-239.101 174.001,-151.787 228,-105 232.66,-100.962 238.123,-97.779 243.883,-95.2704"/>
<polygon fill="midnightblue" stroke="midnightblue" points="141.651,-277.821 143.394,-288.271 148.548,-279.014 141.651,-277.821"/>
</g>
<!-- Node17 -->
<g id="node17" class="node"><title>Node17</title>
<g id="a_node17"><a xlink:href="classnicolive_1_1UserInfo.html" target="_top" xlink:title="ユーザIDからユーザ情報を取得するクラス。 ">
<polygon fill="white" stroke="black" points="249.5,-38.5 249.5,-57.5 342.5,-57.5 342.5,-38.5 249.5,-38.5"/>
<text text-anchor="middle" x="296" y="-45.5" font-family="Helvetica,sans-Serif" font-size="10.00">nicolive::UserInfo</text>
</a>
</g>
</g>
<!-- Node1&#45;&gt;Node17 -->
<g id="edge16" class="edge"><title>Node1&#45;&gt;Node17</title>
<path fill="none" stroke="midnightblue" d="M143.481,-278.37C147.902,-233.976 164.937,-125.206 228,-67 234.042,-61.4238 241.601,-57.4693 249.445,-54.6686"/>
<polygon fill="midnightblue" stroke="midnightblue" points="139.986,-278.154 142.591,-288.424 146.959,-278.772 139.986,-278.154"/>
</g>
<!-- Node18 -->
<g id="node18" class="node"><title>Node18</title>
<g id="a_node18"><a xlink:href="classnicolive_1_1UserSessionLogin.html" target="_top" xlink:title="ニコ動にログインしてユーザセッションを取得します ">
<polygon fill="white" stroke="black" points="228.5,-0.5 228.5,-19.5 363.5,-19.5 363.5,-0.5 228.5,-0.5"/>
<text text-anchor="middle" x="296" y="-7.5" font-family="Helvetica,sans-Serif" font-size="10.00">nicolive::UserSessionLogin</text>
</a>
</g>
</g>
<!-- Node1&#45;&gt;Node18 -->
<g id="edge17" class="edge"><title>Node1&#45;&gt;Node18</title>
<path fill="none" stroke="midnightblue" d="M142.29,-278.232C144.12,-228.789 155.914,-98.7381 228,-29 231.997,-25.1329 236.721,-22.0421 241.782,-19.5735"/>
<polygon fill="midnightblue" stroke="midnightblue" points="138.791,-278.162 142.02,-288.253 145.788,-278.351 138.791,-278.162"/>
</g>
<!-- Node2 -->
<g id="node2" class="node"><title>Node2</title>
<polygon fill="white" stroke="#bfbfbf" points="0.5,-288.5 0.5,-307.5 53.5,-307.5 53.5,-288.5 0.5,-288.5"/>
<text text-anchor="middle" x="27" y="-295.5" font-family="Helvetica,sans-Serif" font-size="10.00">QObject</text>
</g>
<!-- Node2&#45;&gt;Node1 -->
<g id="edge1" class="edge"><title>Node2&#45;&gt;Node1</title>
<path fill="none" stroke="midnightblue" d="M63.8646,-298C72.2394,-298 81.3073,-298 90.1668,-298"/>
<polygon fill="midnightblue" stroke="midnightblue" points="63.6951,-294.5 53.6951,-298 63.695,-301.5 63.6951,-294.5"/>
</g>
</g>
</svg>
        <g id="navigator" transform="translate(0 0)" fill="#404254">
                <rect fill="#f2f5e9" fill-opacity="0.5" stroke="#606060" stroke-width=".5" x="0" y="0" width="60" height="60"/>
                <use id="zoomplus" xlink:href="#zoomPlus" x="17" y="9" onmousedown="handleZoom(evt,'in')"/>
                <use id="zoomminus" xlink:href="#zoomMin" x="42" y="9" onmousedown="handleZoom(evt,'out')"/>
                <use id="reset" xlink:href="#resetDef" x="30" y="36" onmousedown="handleReset()"/>
                <g id="arrowUp" xlink:href="#dirArrow" transform="translate(30 24)" onmousedown="handlePan(0,-1)">
                  <use xlink:href="#rim" fill="#404040">
                        <set attributeName="fill" to="#808080" begin="arrowUp.mouseover" end="arrowUp.mouseout"/>
                  </use>
                  <path fill="none" stroke="white" stroke-width="1.5" d="M0,-3.0v7 M-2.5,-0.5L0,-3.0L2.5,-0.5"/>
                </g>
                <g id="arrowRight" xlink:href="#dirArrow" transform="rotate(90) translate(36 -43)" onmousedown="handlePan(1,0)">
                  <use xlink:href="#rim" fill="#404040">
                        <set attributeName="fill" to="#808080" begin="arrowRight.mouseover" end="arrowRight.mouseout"/>
                  </use>
                  <path fill="none" stroke="white" stroke-width="1.5" d="M0,-3.0v7 M-2.5,-0.5L0,-3.0L2.5,-0.5"/>
                </g>
                <g id="arrowDown" xlink:href="#dirArrow" transform="rotate(180) translate(-30 -48)" onmousedown="handlePan(0,1)">
                  <use xlink:href="#rim" fill="#404040">
                        <set attributeName="fill" to="#808080" begin="arrowDown.mouseover" end="arrowDown.mouseout"/>
                  </use>
                  <path fill="none" stroke="white" stroke-width="1.5" d="M0,-3.0v7 M-2.5,-0.5L0,-3.0L2.5,-0.5"/>
                </g>
                <g id="arrowLeft" xlink:href="#dirArrow" transform="rotate(270) translate(-36 17)" onmousedown="handlePan(-1,0)">
                  <use xlink:href="#rim" fill="#404040">
                        <set attributeName="fill" to="#808080" begin="arrowLeft.mouseover" end="arrowLeft.mouseout"/>
                  </use>
                  <path fill="none" stroke="white" stroke-width="1.5" d="M0,-3.0v7 M-2.5,-0.5L0,-3.0L2.5,-0.5"/>
                </g>
        </g>
        <svg viewBox="0 0 15 15" width="100%" height="30px" preserveAspectRatio="xMaxYMin meet">
         <g id="arrow_out" transform="scale(0.3 0.3)">
          <a xlink:href="classnicolive_1_1HttpGetter__inherit__graph_org.svg" target="_base">
           <rect id="button" ry="5" rx="5" y="6" x="6" height="38" width="38"
                fill="#f2f5e9" fill-opacity="0.5" stroke="#606060" stroke-width="1.0"/>
           <path id="arrow"
             d="M 11.500037,31.436501 C 11.940474,20.09759 22.043105,11.32322 32.158766,21.979434 L 37.068811,17.246167 C 37.068811,17.246167 37.088388,32 37.088388,32 L 22.160133,31.978069 C 22.160133,31.978069 26.997745,27.140456 26.997745,27.140456 C 18.528582,18.264221 13.291696,25.230495 11.500037,31.436501 z"
             style="fill:#404040;"/>
          </a>
         </g>
        </svg>
</svg>
