<?xml version="1.0" encoding="UTF-8" standalone="no"?>
<!DOCTYPE svg PUBLIC "-//W3C//DTD SVG 1.1//EN"
 "http://www.w3.org/Graphics/SVG/1.1/DTD/svg11.dtd">
<!-- Generated by graphviz version 2.36.0 (20140111.2315)
 -->
<!-- Title: Graphical Class Hierarchy Pages: 1 -->
<svg width="418pt" height="610pt"
 viewBox="0.00 0.00 418.00 610.00" xmlns="http://www.w3.org/2000/svg" xmlns:xlink="http://www.w3.org/1999/xlink">
<g id="graph0" class="graph" transform="scale(1 1) rotate(0) translate(4 606)">
<title>Graphical Class Hierarchy</title>
<polygon fill="white" stroke="none" points="-4,4 -4,-606 414,-606 414,4 -4,4"/>
<!-- Node1 -->
<g id="node1" class="node"><title>Node1</title>
<polygon fill="white" stroke="#bfbfbf" points="0.5,-269.5 0.5,-288.5 53.5,-288.5 53.5,-269.5 0.5,-269.5"/>
<text text-anchor="middle" x="27" y="-276.5" font-family="Helvetica,sans-Serif" font-size="10.00">QObject</text>
</g>
<!-- Node2 -->
<g id="node2" class="node"><title>Node2</title>
<g id="a_node2"><a xlink:href="classnicolive_1_1AlertConnection.html" target="_top" xlink:title="生放送通知アラートの接続を管理するクラス。 ">
<polygon fill="white" stroke="black" points="101.5,-364.5 101.5,-383.5 226.5,-383.5 226.5,-364.5 101.5,-364.5"/>
<text text-anchor="middle" x="164" y="-371.5" font-family="Helvetica,sans-Serif" font-size="10.00">nicolive::AlertConnection</text>
</a>
</g>
</g>
<!-- Node1&#45;&gt;Node2 -->
<g id="edge1" class="edge"><title>Node1&#45;&gt;Node2</title>
<path fill="none" stroke="midnightblue" d="M38.22,-297.29C48.9024,-314.722 67.2678,-340.411 90,-355 96.0618,-358.89 102.888,-361.986 109.871,-364.449"/>
<polygon fill="midnightblue" stroke="midnightblue" points="41.1829,-295.424 33.0968,-288.578 35.1489,-298.973 41.1829,-295.424"/>
</g>
<!-- Node3 -->
<g id="node3" class="node"><title>Node3</title>
<g id="a_node3"><a xlink:href="classnicolive_1_1CommentConnection.html" target="_top" xlink:title="ニコ生のコメントの接続を管理するクラス。 ">
<polygon fill="white" stroke="black" points="90,-326.5 90,-345.5 238,-345.5 238,-326.5 90,-326.5"/>
<text text-anchor="middle" x="164" y="-333.5" font-family="Helvetica,sans-Serif" font-size="10.00">nicolive::CommentConnection</text>
</a>
</g>
</g>
<!-- Node1&#45;&gt;Node3 -->
<g id="edge2" class="edge"><title>Node1&#45;&gt;Node3</title>
<path fill="none" stroke="midnightblue" d="M49.6663,-294.47C61.1989,-302.128 75.8834,-310.994 90,-317 98.797,-320.743 108.513,-323.896 117.908,-326.491"/>
<polygon fill="midnightblue" stroke="midnightblue" points="51.3964,-291.414 41.1642,-288.666 47.4494,-297.195 51.3964,-291.414"/>
</g>
<!-- Node4 -->
<g id="node4" class="node"><title>Node4</title>
<g id="a_node4"><a xlink:href="classnicolive_1_1HttpGetter.html" target="_top" xlink:title="APIを取得するのに使用されている抽象クラス。 ">
<polygon fill="white" stroke="black" points="113.5,-288.5 113.5,-307.5 214.5,-307.5 214.5,-288.5 113.5,-288.5"/>
<text text-anchor="middle" x="164" y="-295.5" font-family="Helvetica,sans-Serif" font-size="10.00">nicolive::HttpGetter</text>
</a>
</g>
</g>
<!-- Node1&#45;&gt;Node4 -->
<g id="edge3" class="edge"><title>Node1&#45;&gt;Node4</title>
<path fill="none" stroke="midnightblue" d="M63.7272,-284.028C78.9141,-286.166 96.881,-288.694 113.327,-291.009"/>
<polygon fill="midnightblue" stroke="midnightblue" points="64.1005,-280.546 53.7102,-282.618 63.1248,-287.478 64.1005,-280.546"/>
</g>
<!-- Node21 -->
<g id="node21" class="node"><title>Node21</title>
<g id="a_node21"><a xlink:href="classnicolive_1_1LiveWaku.html" target="_top" xlink:title="１つの生放送の情報を保持するクラス。 ">
<polygon fill="white" stroke="black" points="114.5,-250.5 114.5,-269.5 213.5,-269.5 213.5,-250.5 114.5,-250.5"/>
<text text-anchor="middle" x="164" y="-257.5" font-family="Helvetica,sans-Serif" font-size="10.00">nicolive::LiveWaku</text>
</a>
</g>
</g>
<!-- Node1&#45;&gt;Node21 -->
<g id="edge20" class="edge"><title>Node1&#45;&gt;Node21</title>
<path fill="none" stroke="midnightblue" d="M63.9185,-273.945C79.4052,-271.765 97.7552,-269.183 114.429,-266.836"/>
<polygon fill="midnightblue" stroke="midnightblue" points="63.1248,-270.522 53.7102,-275.382 64.1005,-277.454 63.1248,-270.522"/>
</g>
<!-- Node22 -->
<g id="node22" class="node"><title>Node22</title>
<g id="a_node22"><a xlink:href="classnicolive_1_1Nicookie.html" target="_top" xlink:title="ブラウザからクッキー情報を取得し、ニコニコのusersessionを取り出すクラス。 ">
<polygon fill="white" stroke="black" points="117,-212.5 117,-231.5 211,-231.5 211,-212.5 117,-212.5"/>
<text text-anchor="middle" x="164" y="-219.5" font-family="Helvetica,sans-Serif" font-size="10.00">nicolive::Nicookie</text>
</a>
</g>
</g>
<!-- Node1&#45;&gt;Node22 -->
<g id="edge21" class="edge"><title>Node1&#45;&gt;Node22</title>
<path fill="none" stroke="midnightblue" d="M49.6663,-263.53C61.1989,-255.872 75.8834,-247.006 90,-241 98.797,-237.257 108.513,-234.104 117.908,-231.509"/>
<polygon fill="midnightblue" stroke="midnightblue" points="47.4494,-260.805 41.1642,-269.334 51.3964,-266.586 47.4494,-260.805"/>
</g>
<!-- Node23 -->
<g id="node23" class="node"><title>Node23</title>
<g id="a_node23"><a xlink:href="classnicolive_1_1StrAbstractor.html" target="_top" xlink:title="Class for abstract keywords from a string (Internal Class) ">
<polygon fill="white" stroke="black" points="107.5,-174.5 107.5,-193.5 220.5,-193.5 220.5,-174.5 107.5,-174.5"/>
<text text-anchor="middle" x="164" y="-181.5" font-family="Helvetica,sans-Serif" font-size="10.00">nicolive::StrAbstractor</text>
</a>
</g>
</g>
<!-- Node1&#45;&gt;Node23 -->
<g id="edge22" class="edge"><title>Node1&#45;&gt;Node23</title>
<path fill="none" stroke="midnightblue" d="M38.22,-260.71C48.9024,-243.278 67.2678,-217.589 90,-203 96.0618,-199.11 102.888,-196.014 109.871,-193.551"/>
<polygon fill="midnightblue" stroke="midnightblue" points="35.1489,-259.027 33.0968,-269.422 41.1829,-262.576 35.1489,-259.027"/>
</g>
<!-- Node5 -->
<g id="node5" class="node"><title>Node5</title>
<g id="a_node5"><a xlink:href="classnicolive_1_1AlertAdmin.html" target="_top" xlink:title="ニコ生アラート取得のために必要な情報と、登録コミュニティを取得します。 ">
<polygon fill="white" stroke="black" points="290,-582.5 290,-601.5 394,-601.5 394,-582.5 290,-582.5"/>
<text text-anchor="middle" x="342" y="-589.5" font-family="Helvetica,sans-Serif" font-size="10.00">nicolive::AlertAdmin</text>
</a>
</g>
</g>
<!-- Node4&#45;&gt;Node5 -->
<g id="edge4" class="edge"><title>Node4&#45;&gt;Node5</title>
<path fill="none" stroke="midnightblue" d="M223.866,-306.393C229.178,-309.087 234.037,-312.553 238,-317 314.445,-402.776 198.49,-486.399 274,-573 278.291,-577.921 283.753,-581.611 289.7,-584.371"/>
<polygon fill="midnightblue" stroke="midnightblue" points="225.156,-303.139 214.577,-302.551 222.48,-309.607 225.156,-303.139"/>
</g>
<!-- Node6 -->
<g id="node6" class="node"><title>Node6</title>
<g id="a_node6"><a xlink:href="classnicolive_1_1AlertLogin.html" target="_top" xlink:title="ニコ生アラートのログインをして AlertAdmin に必要なチケットを取得します ">
<polygon fill="white" stroke="black" points="292.5,-544.5 292.5,-563.5 391.5,-563.5 391.5,-544.5 292.5,-544.5"/>
<text text-anchor="middle" x="342" y="-551.5" font-family="Helvetica,sans-Serif" font-size="10.00">nicolive::AlertLogin</text>
</a>
</g>
</g>
<!-- Node4&#45;&gt;Node6 -->
<g id="edge5" class="edge"><title>Node4&#45;&gt;Node6</title>
<path fill="none" stroke="midnightblue" d="M224.366,-306.799C229.462,-309.429 234.137,-312.769 238,-317 304.21,-389.524 208.581,-461.762 274,-535 278.994,-540.591 285.499,-544.588 292.49,-547.435"/>
<polygon fill="midnightblue" stroke="midnightblue" points="225.398,-303.436 214.822,-302.793 222.689,-309.891 225.398,-303.436"/>
</g>
<!-- Node7 -->
<g id="node7" class="node"><title>Node7</title>
<g id="a_node7"><a xlink:href="classnicolive_1_1CommPostKey.html" target="_top" xlink:title="コメント受信に必要なポストキーを取得するクラス。 ">
<polygon fill="white" stroke="black" points="281,-506.5 281,-525.5 403,-525.5 403,-506.5 281,-506.5"/>
<text text-anchor="middle" x="342" y="-513.5" font-family="Helvetica,sans-Serif" font-size="10.00">nicolive::CommPostKey</text>
</a>
</g>
</g>
<!-- Node4&#45;&gt;Node7 -->
<g id="edge6" class="edge"><title>Node4&#45;&gt;Node7</title>
<path fill="none" stroke="midnightblue" d="M224.22,-306.935C229.345,-309.538 234.066,-312.834 238,-317 294.015,-376.316 218.632,-437.08 274,-497 277.528,-500.818 281.762,-503.89 286.364,-506.358"/>
<polygon fill="midnightblue" stroke="midnightblue" points="225.221,-303.56 214.643,-302.96 222.538,-310.026 225.221,-303.56"/>
</g>
<!-- Node8 -->
<g id="node8" class="node"><title>Node8</title>
<g id="a_node8"><a xlink:href="classnicolive_1_1CommunityInfo.html" target="_top" xlink:title="コミュニティIDからコミュニティの情報を取得するクラスです。 ">
<polygon fill="white" stroke="black" points="281,-468.5 281,-487.5 403,-487.5 403,-468.5 281,-468.5"/>
<text text-anchor="middle" x="342" y="-475.5" font-family="Helvetica,sans-Serif" font-size="10.00">nicolive::CommunityInfo</text>
</a>
</g>
</g>
<!-- Node4&#45;&gt;Node8 -->
<g id="edge7" class="edge"><title>Node4&#45;&gt;Node8</title>
<path fill="none" stroke="midnightblue" d="M224.226,-307.254C229.308,-309.798 234.019,-312.994 238,-317 283.892,-363.184 228.612,-412.321 274,-459 277.709,-462.814 282.122,-465.878 286.887,-468.338"/>
<polygon fill="midnightblue" stroke="midnightblue" points="225.332,-303.924 214.753,-303.343 222.661,-310.395 225.332,-303.924"/>
</g>
<!-- Node9 -->
<g id="node9" class="node"><title>Node9</title>
<g id="a_node9"><a xlink:href="classnicolive_1_1ConfigureStream.html" target="_top" xlink:title="ConfigureStream に値を送信するクラスです。 枠を取った後、放送を開始したり終了したりすることができます。 ">
<polygon fill="white" stroke="black" points="277.5,-430.5 277.5,-449.5 406.5,-449.5 406.5,-430.5 277.5,-430.5"/>
<text text-anchor="middle" x="342" y="-437.5" font-family="Helvetica,sans-Serif" font-size="10.00">nicolive::ConfigureStream</text>
</a>
</g>
</g>
<!-- Node4&#45;&gt;Node9 -->
<g id="edge8" class="edge"><title>Node4&#45;&gt;Node9</title>
<path fill="none" stroke="midnightblue" d="M224.104,-307.72C229.171,-310.175 233.913,-313.222 238,-317 273.919,-350.201 238.443,-387.411 274,-421 278.131,-424.902 283.003,-428.012 288.206,-430.489"/>
<polygon fill="midnightblue" stroke="midnightblue" points="225.286,-304.423 214.704,-303.911 222.657,-310.91 225.286,-304.423"/>
</g>
<!-- Node10 -->
<g id="node10" class="node"><title>Node10</title>
<g id="a_node10"><a xlink:href="classnicolive_1_1Extend.html" target="_top" xlink:title="ニコ生放送の延長を実行するクラス。 ">
<polygon fill="white" stroke="black" points="299,-392.5 299,-411.5 385,-411.5 385,-392.5 299,-392.5"/>
<text text-anchor="middle" x="342" y="-399.5" font-family="Helvetica,sans-Serif" font-size="10.00">nicolive::Extend</text>
</a>
</g>
</g>
<!-- Node4&#45;&gt;Node10 -->
<g id="edge9" class="edge"><title>Node4&#45;&gt;Node10</title>
<path fill="none" stroke="midnightblue" d="M224.313,-308.831C229.2,-311.066 233.849,-313.758 238,-317 264.334,-337.566 247.891,-362.149 274,-383 281.18,-388.734 290.002,-392.738 298.858,-395.534"/>
<polygon fill="midnightblue" stroke="midnightblue" points="225.277,-305.449 214.689,-305.071 222.73,-311.97 225.277,-305.449"/>
</g>
<!-- Node11 -->
<g id="node11" class="node"><title>Node11</title>
<g id="a_node11"><a xlink:href="classnicolive_1_1ExtendInfo.html" target="_top" xlink:title="ニコ生放送の延長情報を取得するクラス。 ">
<polygon fill="white" stroke="black" points="290.5,-354.5 290.5,-373.5 393.5,-373.5 393.5,-354.5 290.5,-354.5"/>
<text text-anchor="middle" x="342" y="-361.5" font-family="Helvetica,sans-Serif" font-size="10.00">nicolive::ExtendInfo</text>
</a>
</g>
</g>
<!-- Node4&#45;&gt;Node11 -->
<g id="edge10" class="edge"><title>Node4&#45;&gt;Node11</title>
<path fill="none" stroke="midnightblue" d="M222.411,-310.645C227.783,-312.509 233.06,-314.619 238,-317 256.017,-325.682 256.14,-334.999 274,-344 282.239,-348.152 291.491,-351.601 300.428,-354.399"/>
<polygon fill="midnightblue" stroke="midnightblue" points="223.282,-307.249 212.692,-307.548 221.157,-313.919 223.282,-307.249"/>
</g>
<!-- Node12 -->
<g id="node12" class="node"><title>Node12</title>
<g id="a_node12"><a xlink:href="classnicolive_1_1FetchFavoritedNowWaku.html" target="_top" xlink:title="お気に入り登録しているコミュニティ等で、現在放送されている放送を取得します。 ">
<polygon fill="white" stroke="black" points="281.5,-305 281.5,-335 402.5,-335 402.5,-305 281.5,-305"/>
<text text-anchor="start" x="289.5" y="-323" font-family="Helvetica,sans-Serif" font-size="10.00">nicolive::FetchFavorited</text>
<text text-anchor="middle" x="342" y="-312" font-family="Helvetica,sans-Serif" font-size="10.00">NowWaku</text>
</a>
</g>
</g>
<!-- Node4&#45;&gt;Node12 -->
<g id="edge11" class="edge"><title>Node4&#45;&gt;Node12</title>
<path fill="none" stroke="midnightblue" d="M225.117,-305.515C243.244,-307.78 263.13,-310.266 281.234,-312.529"/>
<polygon fill="midnightblue" stroke="midnightblue" points="225.321,-302.013 214.964,-304.245 224.452,-308.959 225.321,-302.013"/>
</g>
<!-- Node13 -->
<g id="node13" class="node"><title>Node13</title>
<g id="a_node13"><a xlink:href="classnicolive_1_1HeartBeat.html" target="_top" xlink:title="来場者数やコメント数を取得するクラスです。 ">
<polygon fill="white" stroke="black" points="292,-266.5 292,-285.5 392,-285.5 392,-266.5 292,-266.5"/>
<text text-anchor="middle" x="342" y="-273.5" font-family="Helvetica,sans-Serif" font-size="10.00">nicolive::HeartBeat</text>
</a>
</g>
</g>
<!-- Node4&#45;&gt;Node13 -->
<g id="edge12" class="edge"><title>Node4&#45;&gt;Node13</title>
<path fill="none" stroke="midnightblue" d="M225.082,-290.49C246.833,-287.771 271.121,-284.735 291.824,-282.147"/>
<polygon fill="midnightblue" stroke="midnightblue" points="224.452,-287.041 214.964,-291.755 225.321,-293.987 224.452,-287.041"/>
</g>
<!-- Node14 -->
<g id="node14" class="node"><title>Node14</title>
<g id="a_node14"><a xlink:href="classnicolive_1_1LiveTag.html" target="_top" xlink:title="生放送のタグを取得するクラス。 ">
<polygon fill="white" stroke="black" points="297,-228.5 297,-247.5 387,-247.5 387,-228.5 297,-228.5"/>
<text text-anchor="middle" x="342" y="-235.5" font-family="Helvetica,sans-Serif" font-size="10.00">nicolive::LiveTag</text>
</a>
</g>
</g>
<!-- Node4&#45;&gt;Node14 -->
<g id="edge13" class="edge"><title>Node4&#45;&gt;Node14</title>
<path fill="none" stroke="midnightblue" d="M219.841,-285.608C226.056,-283.652 232.225,-281.452 238,-279 255.259,-271.671 256.821,-264.516 274,-257 282.418,-253.317 291.743,-250.146 300.695,-247.508"/>
<polygon fill="midnightblue" stroke="midnightblue" points="218.691,-282.298 210.088,-288.482 220.67,-289.013 218.691,-282.298"/>
</g>
<!-- Node15 -->
<g id="node15" class="node"><title>Node15</title>
<g id="a_node15"><a xlink:href="classnicolive_1_1OwnerComment.html" target="_top" xlink:title="主コメントをするクラスです。 ">
<polygon fill="white" stroke="black" points="278.5,-190.5 278.5,-209.5 405.5,-209.5 405.5,-190.5 278.5,-190.5"/>
<text text-anchor="middle" x="342" y="-197.5" font-family="Helvetica,sans-Serif" font-size="10.00">nicolive::OwnerComment</text>
</a>
</g>
</g>
<!-- Node4&#45;&gt;Node15 -->
<g id="edge14" class="edge"><title>Node4&#45;&gt;Node15</title>
<path fill="none" stroke="midnightblue" d="M224.173,-286.986C229.09,-284.789 233.783,-282.156 238,-279 262.897,-260.366 249.306,-237.903 274,-219 279.088,-215.105 284.941,-212.008 291.025,-209.546"/>
<polygon fill="midnightblue" stroke="midnightblue" points="222.592,-283.844 214.51,-290.696 225.1,-290.379 222.592,-283.844"/>
</g>
<!-- Node16 -->
<g id="node16" class="node"><title>Node16</title>
<g id="a_node16"><a xlink:href="classnicolive_1_1PlayerStatus.html" target="_top" xlink:title="PlayerStatus API から生放送の情報を取得するクラス。 ">
<polygon fill="white" stroke="black" points="286,-152.5 286,-171.5 398,-171.5 398,-152.5 286,-152.5"/>
<text text-anchor="middle" x="342" y="-159.5" font-family="Helvetica,sans-Serif" font-size="10.00">nicolive::PlayerStatus</text>
</a>
</g>
</g>
<!-- Node4&#45;&gt;Node16 -->
<g id="edge15" class="edge"><title>Node4&#45;&gt;Node16</title>
<path fill="none" stroke="midnightblue" d="M224.03,-288.199C229.112,-285.761 233.877,-282.739 238,-279 272.369,-247.826 239.971,-212.545 274,-181 278.167,-177.137 283.063,-174.052 288.279,-171.589"/>
<polygon fill="midnightblue" stroke="midnightblue" points="222.583,-285.009 214.613,-291.989 225.196,-291.503 222.583,-285.009"/>
</g>
<!-- Node17 -->
<g id="node17" class="node"><title>Node17</title>
<g id="a_node17"><a xlink:href="classnicolive_1_1PublishStatus.html" target="_top" xlink:title="主コメントに必要なチケットを取得します。 ">
<polygon fill="white" stroke="black" points="284,-114.5 284,-133.5 400,-133.5 400,-114.5 284,-114.5"/>
<text text-anchor="middle" x="342" y="-121.5" font-family="Helvetica,sans-Serif" font-size="10.00">nicolive::PublishStatus</text>
</a>
</g>
</g>
<!-- Node4&#45;&gt;Node17 -->
<g id="edge16" class="edge"><title>Node4&#45;&gt;Node17</title>
<path fill="none" stroke="midnightblue" d="M224.182,-288.703C229.273,-286.167 233.998,-282.985 238,-279 282.304,-234.879 230.177,-187.599 274,-143 277.813,-139.119 282.356,-136.016 287.254,-133.536"/>
<polygon fill="midnightblue" stroke="midnightblue" points="222.616,-285.562 214.7,-292.604 225.279,-292.036 222.616,-285.562"/>
</g>
<!-- Node18 -->
<g id="node18" class="node"><title>Node18</title>
<g id="a_node18"><a xlink:href="classnicolive_1_1StreamInfo.html" target="_top" xlink:title="枠の情報（タイトル、説明、コミュニティ）を取得するクラスです。 ">
<polygon fill="white" stroke="black" points="290,-76.5 290,-95.5 394,-95.5 394,-76.5 290,-76.5"/>
<text text-anchor="middle" x="342" y="-83.5" font-family="Helvetica,sans-Serif" font-size="10.00">nicolive::StreamInfo</text>
</a>
</g>
</g>
<!-- Node4&#45;&gt;Node18 -->
<g id="edge17" class="edge"><title>Node4&#45;&gt;Node18</title>
<path fill="none" stroke="midnightblue" d="M224.192,-289.039C229.322,-286.441 234.052,-283.153 238,-279 292.41,-221.764 220.214,-162.823 274,-105 278.447,-100.219 283.999,-96.6104 289.992,-93.8911"/>
<polygon fill="midnightblue" stroke="midnightblue" points="222.508,-285.947 214.608,-293.007 225.186,-292.415 222.508,-285.947"/>
</g>
<!-- Node19 -->
<g id="node19" class="node"><title>Node19</title>
<g id="a_node19"><a xlink:href="classnicolive_1_1UserInfo.html" target="_top" xlink:title="ユーザIDからユーザ情報を取得するクラス。 ">
<polygon fill="white" stroke="black" points="295.5,-38.5 295.5,-57.5 388.5,-57.5 388.5,-38.5 295.5,-38.5"/>
<text text-anchor="middle" x="342" y="-45.5" font-family="Helvetica,sans-Serif" font-size="10.00">nicolive::UserInfo</text>
</a>
</g>
</g>
<!-- Node4&#45;&gt;Node19 -->
<g id="edge18" class="edge"><title>Node4&#45;&gt;Node19</title>
<path fill="none" stroke="midnightblue" d="M224.346,-289.183C229.446,-286.557 234.127,-283.223 238,-279 302.597,-208.565 210.171,-138.132 274,-67 279.652,-60.7008 287.223,-56.4259 295.24,-53.5392"/>
<polygon fill="midnightblue" stroke="midnightblue" points="222.668,-286.091 214.798,-293.184 225.374,-292.547 222.668,-286.091"/>
</g>
<!-- Node20 -->
<g id="node20" class="node"><title>Node20</title>
<g id="a_node20"><a xlink:href="classnicolive_1_1UserSessionLogin.html" target="_top" xlink:title="ニコ動にログインしてユーザセッションを取得します ">
<polygon fill="white" stroke="black" points="274.5,-0.5 274.5,-19.5 409.5,-19.5 409.5,-0.5 274.5,-0.5"/>
<text text-anchor="middle" x="342" y="-7.5" font-family="Helvetica,sans-Serif" font-size="10.00">nicolive::UserSessionLogin</text>
</a>
</g>
</g>
<!-- Node4&#45;&gt;Node20 -->
<g id="edge19" class="edge"><title>Node4&#45;&gt;Node20</title>
<path fill="none" stroke="midnightblue" d="M223.851,-289.594C229.166,-286.903 234.03,-283.44 238,-279 312.827,-195.318 200.085,-113.489 274,-29 277.344,-25.1781 281.393,-22.0988 285.828,-19.6214"/>
<polygon fill="midnightblue" stroke="midnightblue" points="222.465,-286.38 214.559,-293.433 225.138,-292.849 222.465,-286.38"/>
</g>
</g>
</svg>
