<?xml version="1.0" encoding="UTF-8" standalone="no"?>
<!DOCTYPE svg PUBLIC "-//W3C//DTD SVG 1.1//EN"
 "http://www.w3.org/Graphics/SVG/1.1/DTD/svg11.dtd">
<!-- Generated by graphviz version 2.36.0 (20140111.2315)
 -->
<!-- Title: QObject Pages: 1 -->
<svg width="420pt" height="332pt"
 viewBox="0.00 0.00 420.00 332.00" xmlns="http://www.w3.org/2000/svg" xmlns:xlink="http://www.w3.org/1999/xlink">
<g id="graph0" class="graph" transform="scale(1 1) rotate(0) translate(4 328)">
<title>QObject</title>
<polygon fill="white" stroke="none" points="-4,4 -4,-328 416,-328 416,4 -4,4"/>
<!-- Node1 -->
<g id="node1" class="node"><title>Node1</title>
<polygon fill="#bfbfbf" stroke="black" points="0.5,-133.5 0.5,-152.5 53.5,-152.5 53.5,-133.5 0.5,-133.5"/>
<text text-anchor="middle" x="27" y="-140.5" font-family="Helvetica,sans-Serif" font-size="10.00">QObject</text>
</g>
<!-- Node2 -->
<g id="node2" class="node"><title>Node2</title>
<g id="a_node2"><a xlink:href="classnicolive_1_1AlertConnection.html" target="_top" xlink:title="生放送通知アラートの接続を管理するクラス。 ">
<polygon fill="white" stroke="black" points="101.5,-228.5 101.5,-247.5 226.5,-247.5 226.5,-228.5 101.5,-228.5"/>
<text text-anchor="middle" x="164" y="-235.5" font-family="Helvetica,sans-Serif" font-size="10.00">nicolive::AlertConnection</text>
</a>
</g>
</g>
<!-- Node1&#45;&gt;Node2 -->
<g id="edge1" class="edge"><title>Node1&#45;&gt;Node2</title>
<path fill="none" stroke="midnightblue" d="M38.22,-161.29C48.9024,-178.722 67.2678,-204.411 90,-219 96.0618,-222.89 102.888,-225.986 109.871,-228.449"/>
<polygon fill="midnightblue" stroke="midnightblue" points="41.1829,-159.424 33.0968,-152.578 35.1489,-162.973 41.1829,-159.424"/>
</g>
<!-- Node3 -->
<g id="node3" class="node"><title>Node3</title>
<g id="a_node3"><a xlink:href="classnicolive_1_1CommentConnection.html" target="_top" xlink:title="ニコ生のコメントの接続を管理するクラス。 ">
<polygon fill="white" stroke="black" points="90,-190.5 90,-209.5 238,-209.5 238,-190.5 90,-190.5"/>
<text text-anchor="middle" x="164" y="-197.5" font-family="Helvetica,sans-Serif" font-size="10.00">nicolive::CommentConnection</text>
</a>
</g>
</g>
<!-- Node1&#45;&gt;Node3 -->
<g id="edge2" class="edge"><title>Node1&#45;&gt;Node3</title>
<path fill="none" stroke="midnightblue" d="M49.6663,-158.47C61.1989,-166.128 75.8834,-174.994 90,-181 98.797,-184.743 108.513,-187.896 117.908,-190.491"/>
<polygon fill="midnightblue" stroke="midnightblue" points="51.3964,-155.414 41.1642,-152.666 47.4494,-161.195 51.3964,-155.414"/>
</g>
<!-- Node4 -->
<g id="node4" class="node"><title>Node4</title>
<g id="a_node4"><a xlink:href="classnicolive_1_1HttpGetter.html" target="_top" xlink:title="APIを取得するのに使用されている抽象クラス。 ">
<polygon fill="white" stroke="black" points="113.5,-152.5 113.5,-171.5 214.5,-171.5 214.5,-152.5 113.5,-152.5"/>
<text text-anchor="middle" x="164" y="-159.5" font-family="Helvetica,sans-Serif" font-size="10.00">nicolive::HttpGetter</text>
</a>
</g>
</g>
<!-- Node1&#45;&gt;Node4 -->
<g id="edge3" class="edge"><title>Node1&#45;&gt;Node4</title>
<path fill="none" stroke="midnightblue" d="M63.7272,-148.028C78.9141,-150.166 96.881,-152.694 113.327,-155.009"/>
<polygon fill="midnightblue" stroke="midnightblue" points="64.1005,-144.546 53.7102,-146.618 63.1248,-151.478 64.1005,-144.546"/>
</g>
<!-- Node14 -->
<g id="node14" class="node"><title>Node14</title>
<g id="a_node14"><a xlink:href="classnicolive_1_1LiveWaku.html" target="_top" xlink:title="１つの生放送の情報を保持するクラス。 ">
<polygon fill="white" stroke="black" points="114.5,-114.5 114.5,-133.5 213.5,-133.5 213.5,-114.5 114.5,-114.5"/>
<text text-anchor="middle" x="164" y="-121.5" font-family="Helvetica,sans-Serif" font-size="10.00">nicolive::LiveWaku</text>
</a>
</g>
</g>
<!-- Node1&#45;&gt;Node14 -->
<g id="edge13" class="edge"><title>Node1&#45;&gt;Node14</title>
<path fill="none" stroke="midnightblue" d="M63.9185,-137.945C79.4052,-135.765 97.7552,-133.183 114.429,-130.836"/>
<polygon fill="midnightblue" stroke="midnightblue" points="63.1248,-134.522 53.7102,-139.382 64.1005,-141.454 63.1248,-134.522"/>
</g>
<!-- Node15 -->
<g id="node15" class="node"><title>Node15</title>
<g id="a_node15"><a xlink:href="classnicolive_1_1Nicookie.html" target="_top" xlink:title="ブラウザからクッキー情報を取得し、ニコニコのusersessionを取り出すクラス。 ">
<polygon fill="white" stroke="black" points="117,-76.5 117,-95.5 211,-95.5 211,-76.5 117,-76.5"/>
<text text-anchor="middle" x="164" y="-83.5" font-family="Helvetica,sans-Serif" font-size="10.00">nicolive::Nicookie</text>
</a>
</g>
</g>
<!-- Node1&#45;&gt;Node15 -->
<g id="edge14" class="edge"><title>Node1&#45;&gt;Node15</title>
<path fill="none" stroke="midnightblue" d="M49.6663,-127.53C61.1989,-119.872 75.8834,-111.006 90,-105 98.797,-101.257 108.513,-98.1044 117.908,-95.5089"/>
<polygon fill="midnightblue" stroke="midnightblue" points="47.4494,-124.805 41.1642,-133.334 51.3964,-130.586 47.4494,-124.805"/>
</g>
<!-- Node16 -->
<g id="node16" class="node"><title>Node16</title>
<g id="a_node16"><a xlink:href="classnicolive_1_1StrAbstractor.html" target="_top" xlink:title="Class for abstract keywords from a string (Internal Class) ">
<polygon fill="white" stroke="black" points="107.5,-38.5 107.5,-57.5 220.5,-57.5 220.5,-38.5 107.5,-38.5"/>
<text text-anchor="middle" x="164" y="-45.5" font-family="Helvetica,sans-Serif" font-size="10.00">nicolive::StrAbstractor</text>
</a>
</g>
</g>
<!-- Node1&#45;&gt;Node16 -->
<g id="edge15" class="edge"><title>Node1&#45;&gt;Node16</title>
<path fill="none" stroke="midnightblue" d="M38.22,-124.71C48.9024,-107.278 67.2678,-81.5887 90,-67 96.0618,-63.1098 102.888,-60.0141 109.871,-57.5512"/>
<polygon fill="midnightblue" stroke="midnightblue" points="35.1489,-123.027 33.0968,-133.422 41.1829,-126.576 35.1489,-123.027"/>
</g>
<!-- Node5 -->
<g id="node5" class="node"><title>Node5</title>
<g id="a_node5"><a xlink:href="classnicolive_1_1AlertAdmin.html" target="_top" xlink:title="ニコ生アラート取得のために必要な情報と、登録コミュニティを取得します。 ">
<polygon fill="white" stroke="black" points="291,-304.5 291,-323.5 395,-323.5 395,-304.5 291,-304.5"/>
<text text-anchor="middle" x="343" y="-311.5" font-family="Helvetica,sans-Serif" font-size="10.00">nicolive::AlertAdmin</text>
</a>
</g>
</g>
<!-- Node4&#45;&gt;Node5 -->
<g id="edge4" class="edge"><title>Node4&#45;&gt;Node5</title>
<path fill="none" stroke="midnightblue" d="M224.212,-171.604C229.258,-174.082 233.965,-177.167 238,-181 276.521,-217.596 235.807,-258.062 274,-295 278.758,-299.602 284.534,-303.107 290.688,-305.775"/>
<polygon fill="midnightblue" stroke="midnightblue" points="225.419,-168.316 214.839,-167.767 222.767,-174.795 225.419,-168.316"/>
</g>
<!-- Node6 -->
<g id="node6" class="node"><title>Node6</title>
<g id="a_node6"><a xlink:href="classnicolive_1_1AlertLogin.html" target="_top" xlink:title="ニコ生アラートのログインをしてAlertAdminに必要なチケットを取得します ">
<polygon fill="white" stroke="black" points="293.5,-266.5 293.5,-285.5 392.5,-285.5 392.5,-266.5 293.5,-266.5"/>
<text text-anchor="middle" x="343" y="-273.5" font-family="Helvetica,sans-Serif" font-size="10.00">nicolive::AlertLogin</text>
</a>
</g>
</g>
<!-- Node4&#45;&gt;Node6 -->
<g id="edge5" class="edge"><title>Node4&#45;&gt;Node6</title>
<path fill="none" stroke="midnightblue" d="M223.914,-172.301C228.98,-174.641 233.776,-177.503 238,-181 266.79,-204.835 245.424,-232.909 274,-257 279.623,-261.74 286.346,-265.303 293.343,-267.978"/>
<polygon fill="midnightblue" stroke="midnightblue" points="225.152,-169.028 214.565,-168.627 222.592,-175.543 225.152,-169.028"/>
</g>
<!-- Node7 -->
<g id="node7" class="node"><title>Node7</title>
<g id="a_node7"><a xlink:href="classnicolive_1_1Extend.html" target="_top" xlink:title="ニコ生放送の延長を実行するクラス。 ">
<polygon fill="white" stroke="black" points="300,-228.5 300,-247.5 386,-247.5 386,-228.5 300,-228.5"/>
<text text-anchor="middle" x="343" y="-235.5" font-family="Helvetica,sans-Serif" font-size="10.00">nicolive::Extend</text>
</a>
</g>
</g>
<!-- Node4&#45;&gt;Node7 -->
<g id="edge6" class="edge"><title>Node4&#45;&gt;Node7</title>
<path fill="none" stroke="midnightblue" d="M224.554,-174.452C229.238,-176.34 233.782,-178.509 238,-181 258.031,-192.832 254.075,-206.99 274,-219 281.874,-223.746 290.97,-227.342 299.898,-230.054"/>
<polygon fill="midnightblue" stroke="midnightblue" points="225.395,-171.036 214.8,-170.96 223.035,-177.626 225.395,-171.036"/>
</g>
<!-- Node8 -->
<g id="node8" class="node"><title>Node8</title>
<g id="a_node8"><a xlink:href="classnicolive_1_1ExtendInfo.html" target="_top" xlink:title="ニコ生放送の延長情報を取得するクラス。 ">
<polygon fill="white" stroke="black" points="291.5,-190.5 291.5,-209.5 394.5,-209.5 394.5,-190.5 291.5,-190.5"/>
<text text-anchor="middle" x="343" y="-197.5" font-family="Helvetica,sans-Serif" font-size="10.00">nicolive::ExtendInfo</text>
</a>
</g>
</g>
<!-- Node4&#45;&gt;Node8 -->
<g id="edge7" class="edge"><title>Node4&#45;&gt;Node8</title>
<path fill="none" stroke="midnightblue" d="M219.742,-173.753C244.77,-179.126 274.035,-185.409 297.657,-190.48"/>
<polygon fill="midnightblue" stroke="midnightblue" points="220.176,-170.266 209.665,-171.589 218.707,-177.11 220.176,-170.266"/>
</g>
<!-- Node9 -->
<g id="node9" class="node"><title>Node9</title>
<g id="a_node9"><a xlink:href="classnicolive_1_1FetchUserName.html" target="_top" xlink:title="ユーザIDからユーザ名を取得するクラス。 ">
<polygon fill="white" stroke="black" points="279,-152.5 279,-171.5 407,-171.5 407,-152.5 279,-152.5"/>
<text text-anchor="middle" x="343" y="-159.5" font-family="Helvetica,sans-Serif" font-size="10.00">nicolive::FetchUserName</text>
</a>
</g>
</g>
<!-- Node4&#45;&gt;Node9 -->
<g id="edge8" class="edge"><title>Node4&#45;&gt;Node9</title>
<path fill="none" stroke="midnightblue" d="M224.776,-162C242.126,-162 261.128,-162 278.687,-162"/>
<polygon fill="midnightblue" stroke="midnightblue" points="224.775,-158.5 214.775,-162 224.775,-165.5 224.775,-158.5"/>
</g>
<!-- Node10 -->
<g id="node10" class="node"><title>Node10</title>
<g id="a_node10"><a xlink:href="classnicolive_1_1GetCommPostKey.html" target="_top" xlink:title="コメント受信に必要なポストキーを取得するクラス。 ">
<polygon fill="white" stroke="black" points="274,-114.5 274,-133.5 412,-133.5 412,-114.5 274,-114.5"/>
<text text-anchor="middle" x="343" y="-121.5" font-family="Helvetica,sans-Serif" font-size="10.00">nicolive::GetCommPostKey</text>
</a>
</g>
</g>
<!-- Node4&#45;&gt;Node10 -->
<g id="edge9" class="edge"><title>Node4&#45;&gt;Node10</title>
<path fill="none" stroke="midnightblue" d="M219.742,-150.247C244.77,-144.874 274.035,-138.591 297.657,-133.52"/>
<polygon fill="midnightblue" stroke="midnightblue" points="218.707,-146.89 209.665,-152.411 220.176,-153.734 218.707,-146.89"/>
</g>
<!-- Node11 -->
<g id="node11" class="node"><title>Node11</title>
<g id="a_node11"><a xlink:href="classnicolive_1_1GetPlayerStatus.html" target="_top" xlink:title="PlayerStatus API から生放送の情報を取得するクラス。 ">
<polygon fill="white" stroke="black" points="279,-76.5 279,-95.5 407,-95.5 407,-76.5 279,-76.5"/>
<text text-anchor="middle" x="343" y="-83.5" font-family="Helvetica,sans-Serif" font-size="10.00">nicolive::GetPlayerStatus</text>
</a>
</g>
</g>
<!-- Node4&#45;&gt;Node11 -->
<g id="edge10" class="edge"><title>Node4&#45;&gt;Node11</title>
<path fill="none" stroke="midnightblue" d="M224.554,-149.548C229.238,-147.66 233.782,-145.491 238,-143 258.031,-131.168 254.075,-117.01 274,-105 280.404,-101.14 287.617,-98.0408 294.89,-95.559"/>
<polygon fill="midnightblue" stroke="midnightblue" points="223.035,-146.374 214.8,-153.04 225.395,-152.964 223.035,-146.374"/>
</g>
<!-- Node12 -->
<g id="node12" class="node"><title>Node12</title>
<g id="a_node12"><a xlink:href="classnicolive_1_1LiveTag.html" target="_top" xlink:title="生放送のタグを取得するクラス。 ">
<polygon fill="white" stroke="black" points="298,-38.5 298,-57.5 388,-57.5 388,-38.5 298,-38.5"/>
<text text-anchor="middle" x="343" y="-45.5" font-family="Helvetica,sans-Serif" font-size="10.00">nicolive::LiveTag</text>
</a>
</g>
</g>
<!-- Node4&#45;&gt;Node12 -->
<g id="edge11" class="edge"><title>Node4&#45;&gt;Node12</title>
<path fill="none" stroke="midnightblue" d="M223.914,-151.699C228.98,-149.359 233.776,-146.497 238,-143 266.79,-119.165 245.424,-91.0907 274,-67 280.841,-61.2324 289.31,-57.2092 297.922,-54.4045"/>
<polygon fill="midnightblue" stroke="midnightblue" points="222.592,-148.457 214.565,-155.373 225.152,-154.972 222.592,-148.457"/>
</g>
<!-- Node13 -->
<g id="node13" class="node"><title>Node13</title>
<g id="a_node13"><a xlink:href="classnicolive_1_1UserSessionLogin.html" target="_top" xlink:title="ニコ動にログインしてユーザセッションを取得します ">
<polygon fill="white" stroke="black" points="275.5,-0.5 275.5,-19.5 410.5,-19.5 410.5,-0.5 275.5,-0.5"/>
<text text-anchor="middle" x="343" y="-7.5" font-family="Helvetica,sans-Serif" font-size="10.00">nicolive::UserSessionLogin</text>
</a>
</g>
</g>
<!-- Node4&#45;&gt;Node13 -->
<g id="edge12" class="edge"><title>Node4&#45;&gt;Node13</title>
<path fill="none" stroke="midnightblue" d="M224.212,-152.396C229.258,-149.918 233.965,-146.833 238,-143 276.521,-106.404 235.807,-65.9377 274,-29 277.965,-25.1653 282.637,-22.0917 287.645,-19.63"/>
<polygon fill="midnightblue" stroke="midnightblue" points="222.767,-149.205 214.839,-156.233 225.419,-155.684 222.767,-149.205"/>
</g>
</g>
</svg>
