<?xml version="1.0" encoding="UTF-8" standalone="no"?>
<!DOCTYPE svg PUBLIC "-//W3C//DTD SVG 1.1//EN"
 "http://www.w3.org/Graphics/SVG/1.1/DTD/svg11.dtd">
<!-- Generated by graphviz version 2.36.0 (20140111.2315)
 -->
<!-- Title: nicolive::HttpGetter Pages: 1 -->
<svg width="374pt" height="332pt"
 viewBox="0.00 0.00 374.00 332.00" xmlns="http://www.w3.org/2000/svg" xmlns:xlink="http://www.w3.org/1999/xlink">
<g id="graph0" class="graph" transform="scale(1 1) rotate(0) translate(4 328)">
<title>nicolive::HttpGetter</title>
<polygon fill="white" stroke="none" points="-4,4 -4,-328 370,-328 370,4 -4,4"/>
<!-- Node1 -->
<g id="node1" class="node"><title>Node1</title>
<polygon fill="#bfbfbf" stroke="black" points="90.5,-152.5 90.5,-171.5 191.5,-171.5 191.5,-152.5 90.5,-152.5"/>
<text text-anchor="middle" x="141" y="-159.5" font-family="Helvetica,sans-Serif" font-size="10.00">nicolive::HttpGetter</text>
</g>
<!-- Node3 -->
<g id="node3" class="node"><title>Node3</title>
<g id="a_node3"><a xlink:href="classnicolive_1_1AlertAdmin.html" target="_top" xlink:title="ニコ生アラート取得のために必要な情報と、登録コミュニティを取得します。 ">
<polygon fill="white" stroke="black" points="245,-304.5 245,-323.5 349,-323.5 349,-304.5 245,-304.5"/>
<text text-anchor="middle" x="297" y="-311.5" font-family="Helvetica,sans-Serif" font-size="10.00">nicolive::AlertAdmin</text>
</a>
</g>
</g>
<!-- Node1&#45;&gt;Node3 -->
<g id="edge2" class="edge"><title>Node1&#45;&gt;Node3</title>
<path fill="none" stroke="midnightblue" d="M149.188,-181.2C161.066,-210.276 187.572,-265.235 228,-295 233.232,-298.852 239.212,-301.923 245.406,-304.372"/>
<polygon fill="midnightblue" stroke="midnightblue" points="152.39,-179.78 145.475,-171.753 145.876,-182.341 152.39,-179.78"/>
</g>
<!-- Node4 -->
<g id="node4" class="node"><title>Node4</title>
<g id="a_node4"><a xlink:href="classnicolive_1_1AlertLogin.html" target="_top" xlink:title="ニコ生アラートのログインをしてAlertAdminに必要なチケットを取得します ">
<polygon fill="white" stroke="black" points="247.5,-266.5 247.5,-285.5 346.5,-285.5 346.5,-266.5 247.5,-266.5"/>
<text text-anchor="middle" x="297" y="-273.5" font-family="Helvetica,sans-Serif" font-size="10.00">nicolive::AlertLogin</text>
</a>
</g>
</g>
<!-- Node1&#45;&gt;Node4 -->
<g id="edge3" class="edge"><title>Node1&#45;&gt;Node4</title>
<path fill="none" stroke="midnightblue" d="M153.74,-180.278C168.507,-201.8 195.858,-237.126 228,-257 234.255,-260.868 241.314,-263.966 248.456,-266.444"/>
<polygon fill="midnightblue" stroke="midnightblue" points="156.497,-178.103 148.037,-171.725 150.673,-181.987 156.497,-178.103"/>
</g>
<!-- Node5 -->
<g id="node5" class="node"><title>Node5</title>
<g id="a_node5"><a xlink:href="classnicolive_1_1Extend.html" target="_top" xlink:title="ニコ生放送の延長を実行するクラス。 ">
<polygon fill="white" stroke="black" points="254,-228.5 254,-247.5 340,-247.5 340,-228.5 254,-228.5"/>
<text text-anchor="middle" x="297" y="-235.5" font-family="Helvetica,sans-Serif" font-size="10.00">nicolive::Extend</text>
</a>
</g>
</g>
<!-- Node1&#45;&gt;Node5 -->
<g id="edge4" class="edge"><title>Node1&#45;&gt;Node5</title>
<path fill="none" stroke="midnightblue" d="M161.784,-177.726C178.569,-190.407 203.724,-207.899 228,-219 236.138,-222.721 245.164,-225.865 253.91,-228.458"/>
<polygon fill="midnightblue" stroke="midnightblue" points="163.878,-174.921 153.819,-171.593 159.607,-180.467 163.878,-174.921"/>
</g>
<!-- Node6 -->
<g id="node6" class="node"><title>Node6</title>
<g id="a_node6"><a xlink:href="classnicolive_1_1ExtendInfo.html" target="_top" xlink:title="ニコ生放送の延長情報を取得するクラス。 ">
<polygon fill="white" stroke="black" points="245.5,-190.5 245.5,-209.5 348.5,-209.5 348.5,-190.5 245.5,-190.5"/>
<text text-anchor="middle" x="297" y="-197.5" font-family="Helvetica,sans-Serif" font-size="10.00">nicolive::ExtendInfo</text>
</a>
</g>
</g>
<!-- Node1&#45;&gt;Node6 -->
<g id="edge5" class="edge"><title>Node1&#45;&gt;Node6</title>
<path fill="none" stroke="midnightblue" d="M190.794,-174.04C212.308,-179.349 237.232,-185.499 257.419,-190.48"/>
<polygon fill="midnightblue" stroke="midnightblue" points="191.408,-170.587 180.861,-171.589 189.731,-177.383 191.408,-170.587"/>
</g>
<!-- Node7 -->
<g id="node7" class="node"><title>Node7</title>
<g id="a_node7"><a xlink:href="classnicolive_1_1FetchUserName.html" target="_top" xlink:title="ユーザIDからユーザ名を取得するクラス。 ">
<polygon fill="white" stroke="black" points="233,-152.5 233,-171.5 361,-171.5 361,-152.5 233,-152.5"/>
<text text-anchor="middle" x="297" y="-159.5" font-family="Helvetica,sans-Serif" font-size="10.00">nicolive::FetchUserName</text>
</a>
</g>
</g>
<!-- Node1&#45;&gt;Node7 -->
<g id="edge6" class="edge"><title>Node1&#45;&gt;Node7</title>
<path fill="none" stroke="midnightblue" d="M201.669,-162C211.937,-162 222.638,-162 232.991,-162"/>
<polygon fill="midnightblue" stroke="midnightblue" points="201.574,-158.5 191.574,-162 201.574,-165.5 201.574,-158.5"/>
</g>
<!-- Node8 -->
<g id="node8" class="node"><title>Node8</title>
<g id="a_node8"><a xlink:href="classnicolive_1_1GetCommPostKey.html" target="_top" xlink:title="コメント受信に必要なポストキーを取得するクラス。 ">
<polygon fill="white" stroke="black" points="228,-114.5 228,-133.5 366,-133.5 366,-114.5 228,-114.5"/>
<text text-anchor="middle" x="297" y="-121.5" font-family="Helvetica,sans-Serif" font-size="10.00">nicolive::GetCommPostKey</text>
</a>
</g>
</g>
<!-- Node1&#45;&gt;Node8 -->
<g id="edge7" class="edge"><title>Node1&#45;&gt;Node8</title>
<path fill="none" stroke="midnightblue" d="M190.794,-149.96C212.308,-144.651 237.232,-138.501 257.419,-133.52"/>
<polygon fill="midnightblue" stroke="midnightblue" points="189.731,-146.617 180.861,-152.411 191.408,-153.413 189.731,-146.617"/>
</g>
<!-- Node9 -->
<g id="node9" class="node"><title>Node9</title>
<g id="a_node9"><a xlink:href="classnicolive_1_1GetPlayerStatus.html" target="_top" xlink:title="PlayerStatus API から生放送の情報を取得するクラス。 ">
<polygon fill="white" stroke="black" points="233,-76.5 233,-95.5 361,-95.5 361,-76.5 233,-76.5"/>
<text text-anchor="middle" x="297" y="-83.5" font-family="Helvetica,sans-Serif" font-size="10.00">nicolive::GetPlayerStatus</text>
</a>
</g>
</g>
<!-- Node1&#45;&gt;Node9 -->
<g id="edge8" class="edge"><title>Node1&#45;&gt;Node9</title>
<path fill="none" stroke="midnightblue" d="M161.784,-146.274C178.569,-133.593 203.724,-116.101 228,-105 236.138,-101.279 245.164,-98.1349 253.91,-95.5416"/>
<polygon fill="midnightblue" stroke="midnightblue" points="159.607,-143.533 153.819,-152.407 163.878,-149.079 159.607,-143.533"/>
</g>
<!-- Node10 -->
<g id="node10" class="node"><title>Node10</title>
<g id="a_node10"><a xlink:href="classnicolive_1_1LiveTag.html" target="_top" xlink:title="生放送のタグを取得するクラス。 ">
<polygon fill="white" stroke="black" points="252,-38.5 252,-57.5 342,-57.5 342,-38.5 252,-38.5"/>
<text text-anchor="middle" x="297" y="-45.5" font-family="Helvetica,sans-Serif" font-size="10.00">nicolive::LiveTag</text>
</a>
</g>
</g>
<!-- Node1&#45;&gt;Node10 -->
<g id="edge9" class="edge"><title>Node1&#45;&gt;Node10</title>
<path fill="none" stroke="midnightblue" d="M153.74,-143.722C168.507,-122.2 195.858,-86.8737 228,-67 235.194,-62.552 243.45,-59.1215 251.673,-56.4831"/>
<polygon fill="midnightblue" stroke="midnightblue" points="150.673,-142.013 148.037,-152.275 156.497,-145.897 150.673,-142.013"/>
</g>
<!-- Node11 -->
<g id="node11" class="node"><title>Node11</title>
<g id="a_node11"><a xlink:href="classnicolive_1_1UserSessionLogin.html" target="_top" xlink:title="ニコ動にログインしてユーザセッションを取得します ">
<polygon fill="white" stroke="black" points="229.5,-0.5 229.5,-19.5 364.5,-19.5 364.5,-0.5 229.5,-0.5"/>
<text text-anchor="middle" x="297" y="-7.5" font-family="Helvetica,sans-Serif" font-size="10.00">nicolive::UserSessionLogin</text>
</a>
</g>
</g>
<!-- Node1&#45;&gt;Node11 -->
<g id="edge10" class="edge"><title>Node1&#45;&gt;Node11</title>
<path fill="none" stroke="midnightblue" d="M149.188,-142.8C161.066,-113.724 187.572,-58.7647 228,-29 233.232,-25.1483 239.212,-22.077 245.406,-19.6282"/>
<polygon fill="midnightblue" stroke="midnightblue" points="145.876,-141.659 145.475,-152.247 152.39,-144.22 145.876,-141.659"/>
</g>
<!-- Node2 -->
<g id="node2" class="node"><title>Node2</title>
<g id="a_node2"><a xlink:href="classQObject.html" target="_top" xlink:title="QObject">
<polygon fill="white" stroke="black" points="0.5,-152.5 0.5,-171.5 53.5,-171.5 53.5,-152.5 0.5,-152.5"/>
<text text-anchor="middle" x="27" y="-159.5" font-family="Helvetica,sans-Serif" font-size="10.00">QObject</text>
</a>
</g>
</g>
<!-- Node2&#45;&gt;Node1 -->
<g id="edge1" class="edge"><title>Node2&#45;&gt;Node1</title>
<path fill="none" stroke="midnightblue" d="M63.8646,-162C72.2394,-162 81.3073,-162 90.1668,-162"/>
<polygon fill="midnightblue" stroke="midnightblue" points="63.6951,-158.5 53.6951,-162 63.695,-165.5 63.6951,-158.5"/>
</g>
</g>
</svg>
