<?xml version="1.0" encoding="UTF-8" standalone="no"?>
<!DOCTYPE svg PUBLIC "-//W3C//DTD SVG 1.1//EN"
 "http://www.w3.org/Graphics/SVG/1.1/DTD/svg11.dtd">
<!-- Generated by graphviz version 2.36.0 (20140111.2315)
 -->
<!-- Title: nicolive::GetPlayerStatus::error Pages: 1 -->
<svg width="272pt" height="38pt"
 viewBox="0.00 0.00 272.00 38.00" xmlns="http://www.w3.org/2000/svg" xmlns:xlink="http://www.w3.org/1999/xlink">
<g id="graph0" class="graph" transform="scale(1 1) rotate(0) translate(4 34)">
<title>nicolive::GetPlayerStatus::error</title>
<polygon fill="white" stroke="none" points="-4,4 -4,-34 268,-34 268,4 -4,4"/>
<!-- Node1 -->
<g id="node1" class="node"><title>Node1</title>
<polygon fill="#bfbfbf" stroke="black" points="0,-0 0,-30 128,-30 128,-0 0,-0"/>
<text text-anchor="start" x="8" y="-18" font-family="Helvetica,sans-Serif" font-size="10.00">nicolive::GetPlayerStatus</text>
<text text-anchor="middle" x="64" y="-7" font-family="Helvetica,sans-Serif" font-size="10.00">::error</text>
</g>
<!-- Node2 -->
<g id="node2" class="node"><title>Node2</title>
<g id="a_node2"><a xlink:href="classnicolive_1_1LiveWaku.html#a35b3ecc67ca23800f0300fe93ec41672" target="_top" xlink:title="PlayerStatus を使って放送枠に関する情報を取得します。 ">
<polygon fill="white" stroke="black" points="164.5,-0 164.5,-30 263.5,-30 263.5,-0 164.5,-0"/>
<text text-anchor="start" x="172.5" y="-18" font-family="Helvetica,sans-Serif" font-size="10.00">nicolive::LiveWaku</text>
<text text-anchor="middle" x="214" y="-7" font-family="Helvetica,sans-Serif" font-size="10.00">::fetchInformation</text>
</a>
</g>
</g>
<!-- Node1&#45;&gt;Node2 -->
<g id="edge1" class="edge"><title>Node1&#45;&gt;Node2</title>
<path fill="none" stroke="midnightblue" d="M138.467,-15C147.247,-15 156.037,-15 164.342,-15"/>
<polygon fill="midnightblue" stroke="midnightblue" points="138.195,-11.5001 128.195,-15 138.195,-18.5001 138.195,-11.5001"/>
</g>
</g>
</svg>
