<?xml version="1.0" encoding="UTF-8" standalone="no"?>
<!DOCTYPE svg PUBLIC "-//W3C//DTD SVG 1.1//EN"
 "http://www.w3.org/Graphics/SVG/1.1/DTD/svg11.dtd">
<!-- Generated by graphviz version 2.36.0 (20140111.2315)
 -->
<!-- Title: nicolive::GetCommPostKey Pages: 1 -->
<svg width="217pt" height="154pt"
 viewBox="0.00 0.00 217.00 154.00" xmlns="http://www.w3.org/2000/svg" xmlns:xlink="http://www.w3.org/1999/xlink">
<g id="graph0" class="graph" transform="scale(1 1) rotate(0) translate(4 150)">
<title>nicolive::GetCommPostKey</title>
<polygon fill="white" stroke="none" points="-4,4 -4,-150 213,-150 213,4 -4,4"/>
<!-- Node1 -->
<g id="node1" class="node"><title>Node1</title>
<polygon fill="#bfbfbf" stroke="black" points="14,-0.5 14,-19.5 152,-19.5 152,-0.5 14,-0.5"/>
<text text-anchor="middle" x="83" y="-7.5" font-family="Helvetica,sans-Serif" font-size="10.00">nicolive::GetCommPostKey</text>
</g>
<!-- Node2 -->
<g id="node2" class="node"><title>Node2</title>
<g id="a_node2"><a xlink:href="classnicolive_1_1HttpGetter.html" target="_top" xlink:title="APIを取得するのに使用されている抽象クラス。 ">
<polygon fill="white" stroke="black" points="32.5,-58.5 32.5,-77.5 133.5,-77.5 133.5,-58.5 32.5,-58.5"/>
<text text-anchor="middle" x="83" y="-65.5" font-family="Helvetica,sans-Serif" font-size="10.00">nicolive::HttpGetter</text>
</a>
</g>
</g>
<!-- Node2&#45;&gt;Node1 -->
<g id="edge1" class="edge"><title>Node2&#45;&gt;Node1</title>
<path fill="none" stroke="midnightblue" d="M83,-47.953C83,-38.2875 83,-27.0312 83,-19.5052"/>
<polygon fill="midnightblue" stroke="midnightblue" points="79.5001,-48.25 83,-58.25 86.5001,-48.25 79.5001,-48.25"/>
</g>
<!-- Node3 -->
<g id="node3" class="node"><title>Node3</title>
<g id="a_node3"><a xlink:href="classQObject.html" target="_top" xlink:title="QObject">
<polygon fill="white" stroke="black" points="-0.5,-126.5 -0.5,-145.5 52.5,-145.5 52.5,-126.5 -0.5,-126.5"/>
<text text-anchor="middle" x="26" y="-133.5" font-family="Helvetica,sans-Serif" font-size="10.00">QObject</text>
</a>
</g>
</g>
<!-- Node3&#45;&gt;Node2 -->
<g id="edge2" class="edge"><title>Node3&#45;&gt;Node2</title>
<path fill="none" stroke="midnightblue" d="M40.0945,-118.68C51.2382,-105.777 66.3685,-88.2575 75.3645,-77.8411"/>
<polygon fill="midnightblue" stroke="midnightblue" points="37.3391,-116.516 33.4518,-126.372 42.6369,-121.091 37.3391,-116.516"/>
</g>
<!-- Node4 -->
<g id="node4" class="node"><title>Node4</title>
<polygon fill="white" stroke="#bfbfbf" points="71,-126.5 71,-145.5 209,-145.5 209,-126.5 71,-126.5"/>
<text text-anchor="middle" x="140" y="-133.5" font-family="Helvetica,sans-Serif" font-size="10.00">QNetworkAccessManager *</text>
</g>
<!-- Node4&#45;&gt;Node2 -->
<g id="edge3" class="edge"><title>Node4&#45;&gt;Node2</title>
<path fill="none" stroke="#9a32cd" stroke-dasharray="5,2" d="M125.905,-118.68C114.762,-105.777 99.6315,-88.2575 90.6355,-77.8411"/>
<polygon fill="#9a32cd" stroke="#9a32cd" points="123.363,-121.091 132.548,-126.372 128.661,-116.516 123.363,-121.091"/>
<text text-anchor="middle" x="141.5" y="-99.5" font-family="Helvetica,sans-Serif" font-size="10.00"> mManager</text>
</g>
</g>
</svg>
