<?xml version="1.0" encoding="UTF-8" standalone="no"?>
<!DOCTYPE svg PUBLIC "-//W3C//DTD SVG 1.1//EN"
 "http://www.w3.org/Graphics/SVG/1.1/DTD/svg11.dtd">
<!-- Generated by graphviz version 2.36.0 (20140111.2315)
 -->
<!-- Title: nicolive::HttpGetter Pages: 1 -->
<svg width="217pt" height="96pt"
 viewBox="0.00 0.00 217.00 96.00" xmlns="http://www.w3.org/2000/svg" xmlns:xlink="http://www.w3.org/1999/xlink">
<g id="graph0" class="graph" transform="scale(1 1) rotate(0) translate(4 92)">
<title>nicolive::HttpGetter</title>
<polygon fill="white" stroke="none" points="-4,4 -4,-92 213,-92 213,4 -4,4"/>
<!-- Node1 -->
<g id="node1" class="node"><title>Node1</title>
<polygon fill="#bfbfbf" stroke="black" points="32.5,-0.5 32.5,-19.5 133.5,-19.5 133.5,-0.5 32.5,-0.5"/>
<text text-anchor="middle" x="83" y="-7.5" font-family="Helvetica,sans-Serif" font-size="10.00">nicolive::HttpGetter</text>
</g>
<!-- Node2 -->
<g id="node2" class="node"><title>Node2</title>
<g id="a_node2"><a xlink:href="classQObject.html" target="_top" xlink:title="QObject">
<polygon fill="white" stroke="black" points="-0.5,-68.5 -0.5,-87.5 52.5,-87.5 52.5,-68.5 -0.5,-68.5"/>
<text text-anchor="middle" x="26" y="-75.5" font-family="Helvetica,sans-Serif" font-size="10.00">QObject</text>
</a>
</g>
</g>
<!-- Node2&#45;&gt;Node1 -->
<g id="edge1" class="edge"><title>Node2&#45;&gt;Node1</title>
<path fill="none" stroke="midnightblue" d="M40.0945,-60.68C51.2382,-47.7768 66.3685,-30.2575 75.3645,-19.8411"/>
<polygon fill="midnightblue" stroke="midnightblue" points="37.3391,-58.5157 33.4518,-68.3717 42.6369,-63.0911 37.3391,-58.5157"/>
</g>
<!-- Node3 -->
<g id="node3" class="node"><title>Node3</title>
<polygon fill="white" stroke="#bfbfbf" points="71,-68.5 71,-87.5 209,-87.5 209,-68.5 71,-68.5"/>
<text text-anchor="middle" x="140" y="-75.5" font-family="Helvetica,sans-Serif" font-size="10.00">QNetworkAccessManager *</text>
</g>
<!-- Node3&#45;&gt;Node1 -->
<g id="edge2" class="edge"><title>Node3&#45;&gt;Node1</title>
<path fill="none" stroke="#9a32cd" stroke-dasharray="5,2" d="M125.905,-60.68C114.762,-47.7768 99.6315,-30.2575 90.6355,-19.8411"/>
<polygon fill="#9a32cd" stroke="#9a32cd" points="123.363,-63.0911 132.548,-68.3717 128.661,-58.5157 123.363,-63.0911"/>
<text text-anchor="middle" x="141.5" y="-41.5" font-family="Helvetica,sans-Serif" font-size="10.00"> mManager</text>
</g>
</g>
</svg>
