<?xml version="1.0" encoding="UTF-8" standalone="no"?>
<!DOCTYPE svg PUBLIC "-//W3C//DTD SVG 1.1//EN"
 "http://www.w3.org/Graphics/SVG/1.1/DTD/svg11.dtd">
<!-- Generated by graphviz version 2.36.0 (20140111.2315)
 -->
<!-- Title: nicolive::GetCommPostKey::got Pages: 1 -->
<svg width="486pt" height="38pt"
 viewBox="0.00 0.00 486.00 38.00" xmlns="http://www.w3.org/2000/svg" xmlns:xlink="http://www.w3.org/1999/xlink">
<g id="graph0" class="graph" transform="scale(1 1) rotate(0) translate(4 34)">
<title>nicolive::GetCommPostKey::got</title>
<polygon fill="white" stroke="none" points="-4,4 -4,-34 482,-34 482,4 -4,4"/>
<!-- Node1 -->
<g id="node1" class="node"><title>Node1</title>
<polygon fill="#bfbfbf" stroke="black" points="0,-5.5 0,-24.5 158,-24.5 158,-5.5 0,-5.5"/>
<text text-anchor="middle" x="79" y="-12.5" font-family="Helvetica,sans-Serif" font-size="10.00">nicolive::GetCommPostKey::got</text>
</g>
<!-- Node2 -->
<g id="node2" class="node"><title>Node2</title>
<g id="a_node2"><a xlink:href="classnicolive_1_1LiveWaku.html#a872cdbcd69bd17a43d706ab061a2f3ef" target="_top" xlink:title="コメント送信に必要な PostKey の取得・更新をします。 ">
<polygon fill="white" stroke="black" points="194.5,-0 194.5,-30 293.5,-30 293.5,-0 194.5,-0"/>
<text text-anchor="start" x="202.5" y="-18" font-family="Helvetica,sans-Serif" font-size="10.00">nicolive::LiveWaku</text>
<text text-anchor="middle" x="244" y="-7" font-family="Helvetica,sans-Serif" font-size="10.00">::fetchPostKey</text>
</a>
</g>
</g>
<!-- Node1&#45;&gt;Node2 -->
<g id="edge1" class="edge"><title>Node1&#45;&gt;Node2</title>
<path fill="none" stroke="midnightblue" d="M168.212,-15C177.096,-15 185.873,-15 194.117,-15"/>
<polygon fill="midnightblue" stroke="midnightblue" points="168.158,-11.5001 158.158,-15 168.158,-18.5001 168.158,-11.5001"/>
</g>
<!-- Node3 -->
<g id="node3" class="node"><title>Node3</title>
<g id="a_node3"><a xlink:href="classnicolive_1_1CommentConnection.html#a9eb93f44b510ee11616a4e19ec26f7a3" target="_top" xlink:title="コンストラクタ ">
<polygon fill="white" stroke="black" points="330,-0 330,-30 478,-30 478,-0 330,-0"/>
<text text-anchor="start" x="338" y="-18" font-family="Helvetica,sans-Serif" font-size="10.00">nicolive::CommentConnection</text>
<text text-anchor="middle" x="404" y="-7" font-family="Helvetica,sans-Serif" font-size="10.00">::CommentConnection</text>
</a>
</g>
</g>
<!-- Node2&#45;&gt;Node3 -->
<g id="edge2" class="edge"><title>Node2&#45;&gt;Node3</title>
<path fill="none" stroke="midnightblue" d="M303.823,-15C312.285,-15 321.077,-15 329.776,-15"/>
<polygon fill="midnightblue" stroke="midnightblue" points="303.694,-11.5001 293.694,-15 303.694,-18.5001 303.694,-11.5001"/>
</g>
</g>
</svg>
