<?xml version="1.0" encoding="UTF-8" standalone="no"?>
<!DOCTYPE svg PUBLIC "-//W3C//DTD SVG 1.1//EN"
 "http://www.w3.org/Graphics/SVG/1.1/DTD/svg11.dtd">
<!-- Generated by graphviz version 2.36.0 (20140111.2315)
 -->
<!-- Title: nicolive::CommentConnection::error Pages: 1 -->
<svg width="340pt" height="136pt"
 viewBox="0.00 0.00 340.00 136.00" xmlns="http://www.w3.org/2000/svg" xmlns:xlink="http://www.w3.org/1999/xlink">
<g id="graph0" class="graph" transform="scale(1 1) rotate(0) translate(4 132)">
<title>nicolive::CommentConnection::error</title>
<polygon fill="white" stroke="none" points="-4,4 -4,-132 336,-132 336,4 -4,4"/>
<!-- Node1 -->
<g id="node1" class="node"><title>Node1</title>
<polygon fill="#bfbfbf" stroke="black" points="0,-49 0,-79 148,-79 148,-49 0,-49"/>
<text text-anchor="start" x="8" y="-67" font-family="Helvetica,sans-Serif" font-size="10.00">nicolive::CommentConnection</text>
<text text-anchor="middle" x="74" y="-56" font-family="Helvetica,sans-Serif" font-size="10.00">::error</text>
</g>
<!-- Node2 -->
<g id="node2" class="node"><title>Node2</title>
<g id="a_node2"><a xlink:href="classnicolive_1_1CommentConnection.html#a9eb93f44b510ee11616a4e19ec26f7a3" target="_top" xlink:title="コンストラクタ ">
<polygon fill="white" stroke="black" points="184,-98 184,-128 332,-128 332,-98 184,-98"/>
<text text-anchor="start" x="192" y="-116" font-family="Helvetica,sans-Serif" font-size="10.00">nicolive::CommentConnection</text>
<text text-anchor="middle" x="258" y="-105" font-family="Helvetica,sans-Serif" font-size="10.00">::CommentConnection</text>
</a>
</g>
</g>
<!-- Node1&#45;&gt;Node2 -->
<g id="edge1" class="edge"><title>Node1&#45;&gt;Node2</title>
<path fill="none" stroke="midnightblue" d="M140.923,-81.7485C160.648,-87.0591 182.078,-92.8288 201.094,-97.9484"/>
<polygon fill="midnightblue" stroke="midnightblue" points="141.657,-78.3216 131.091,-79.1014 139.837,-85.0809 141.657,-78.3216"/>
</g>
<!-- Node3 -->
<g id="node3" class="node"><title>Node3</title>
<g id="a_node3"><a xlink:href="classnicolive_1_1CommentConnection.html#a4562e16f7f915dc70d8b392c75ab500f" target="_top" xlink:title="コメントサーバに接続します。 ">
<polygon fill="white" stroke="black" points="184,-49 184,-79 332,-79 332,-49 184,-49"/>
<text text-anchor="start" x="192" y="-67" font-family="Helvetica,sans-Serif" font-size="10.00">nicolive::CommentConnection</text>
<text text-anchor="middle" x="258" y="-56" font-family="Helvetica,sans-Serif" font-size="10.00">::doConnect</text>
</a>
</g>
</g>
<!-- Node1&#45;&gt;Node3 -->
<g id="edge2" class="edge"><title>Node1&#45;&gt;Node3</title>
<path fill="none" stroke="midnightblue" d="M158.516,-64C166.992,-64 175.556,-64 183.91,-64"/>
<polygon fill="midnightblue" stroke="midnightblue" points="158.24,-60.5001 148.24,-64 158.24,-67.5001 158.24,-60.5001"/>
</g>
<!-- Node4 -->
<g id="node4" class="node"><title>Node4</title>
<g id="a_node4"><a xlink:href="classnicolive_1_1CommentConnection.html#af47baac98c2486108bef89e983df5228" target="_top" xlink:title="通常のコメントを送信します。 ">
<polygon fill="white" stroke="black" points="184,-0 184,-30 332,-30 332,-0 184,-0"/>
<text text-anchor="start" x="192" y="-18" font-family="Helvetica,sans-Serif" font-size="10.00">nicolive::CommentConnection</text>
<text text-anchor="middle" x="258" y="-7" font-family="Helvetica,sans-Serif" font-size="10.00">::sendComment</text>
</a>
</g>
</g>
<!-- Node1&#45;&gt;Node4 -->
<g id="edge3" class="edge"><title>Node1&#45;&gt;Node4</title>
<path fill="none" stroke="midnightblue" d="M140.923,-46.2515C160.648,-40.9409 182.078,-35.1712 201.094,-30.0516"/>
<polygon fill="midnightblue" stroke="midnightblue" points="139.837,-42.9191 131.091,-48.8986 141.657,-49.6784 139.837,-42.9191"/>
</g>
</g>
</svg>
