<?xml version="1.0" encoding="UTF-8" standalone="no"?>
<!DOCTYPE svg PUBLIC "-//W3C//DTD SVG 1.1//EN"
 "http://www.w3.org/Graphics/SVG/1.1/DTD/svg11.dtd">
<!-- Generated by graphviz version 2.36.0 (20140111.2315)
 -->
<!-- Title: nicolive::Nicookie Pages: 1 -->
<svg width="358pt" height="184pt"
 viewBox="0.00 0.00 358.00 184.00" xmlns="http://www.w3.org/2000/svg" xmlns:xlink="http://www.w3.org/1999/xlink">
<g id="graph0" class="graph" transform="scale(1 1) rotate(0) translate(4 180)">
<title>nicolive::Nicookie</title>
<polygon fill="white" stroke="none" points="-4,4 -4,-180 354,-180 354,4 -4,4"/>
<!-- Node1 -->
<g id="node1" class="node"><title>Node1</title>
<polygon fill="#bfbfbf" stroke="black" points="83,-0.5 83,-19.5 177,-19.5 177,-0.5 83,-0.5"/>
<text text-anchor="middle" x="130" y="-7.5" font-family="Helvetica,sans-Serif" font-size="10.00">nicolive::Nicookie</text>
</g>
<!-- Node2 -->
<g id="node2" class="node"><title>Node2</title>
<g id="a_node2"><a xlink:href="classQObject.html" target="_top" xlink:title="QObject">
<polygon fill="white" stroke="black" points="-0.5,-156.5 -0.5,-175.5 52.5,-175.5 52.5,-156.5 -0.5,-156.5"/>
<text text-anchor="middle" x="26" y="-163.5" font-family="Helvetica,sans-Serif" font-size="10.00">QObject</text>
</a>
</g>
</g>
<!-- Node2&#45;&gt;Node1 -->
<g id="edge1" class="edge"><title>Node2&#45;&gt;Node1</title>
<path fill="none" stroke="midnightblue" d="M37.676,-147.711C59.9116,-114.785 107.595,-44.1765 124.175,-19.6253"/>
<polygon fill="midnightblue" stroke="midnightblue" points="34.5856,-146.033 31.8895,-156.279 40.3866,-149.951 34.5856,-146.033"/>
</g>
<!-- Node3 -->
<g id="node3" class="node"><title>Node3</title>
<polygon fill="white" stroke="#bfbfbf" points="70.5,-156.5 70.5,-175.5 189.5,-175.5 189.5,-156.5 70.5,-156.5"/>
<text text-anchor="middle" x="130" y="-163.5" font-family="Helvetica,sans-Serif" font-size="10.00">static const QStringList</text>
</g>
<!-- Node3&#45;&gt;Node1 -->
<g id="edge2" class="edge"><title>Node3&#45;&gt;Node1</title>
<path fill="none" stroke="#9a32cd" stroke-dasharray="5,2" d="M130,-145.982C130,-112.374 130,-43.755 130,-19.6253"/>
<polygon fill="#9a32cd" stroke="#9a32cd" points="126.5,-146.279 130,-156.279 133.5,-146.279 126.5,-146.279"/>
<text text-anchor="middle" x="171" y="-85.5" font-family="Helvetica,sans-Serif" font-size="10.00"> BROWSER_LIST</text>
</g>
<!-- Node4 -->
<g id="node4" class="node"><title>Node4</title>
<polygon fill="white" stroke="#bfbfbf" points="210,-156.5 210,-175.5 260,-175.5 260,-156.5 210,-156.5"/>
<text text-anchor="middle" x="235" y="-163.5" font-family="Helvetica,sans-Serif" font-size="10.00">QString</text>
</g>
<!-- Node4&#45;&gt;Node1 -->
<g id="edge3" class="edge"><title>Node4&#45;&gt;Node1</title>
<path fill="none" stroke="#9a32cd" stroke-dasharray="5,2" d="M237.299,-146.229C239.537,-119.002 239.411,-68.4851 213,-38 203.872,-27.4635 190.585,-21.013 177.307,-17.0726"/>
<polygon fill="#9a32cd" stroke="#9a32cd" points="233.8,-146.041 236.264,-156.346 240.763,-146.753 233.8,-146.041"/>
<text text-anchor="middle" x="294" y="-129.5" font-family="Helvetica,sans-Serif" font-size="10.00"> OPERA</text>
<text text-anchor="middle" x="294" y="-118.5" font-family="Helvetica,sans-Serif" font-size="10.00">SAFARI</text>
<text text-anchor="middle" x="294" y="-107.5" font-family="Helvetica,sans-Serif" font-size="10.00">INTERNET_EXPLORER</text>
<text text-anchor="middle" x="294" y="-96.5" font-family="Helvetica,sans-Serif" font-size="10.00">COOKIE_NAME</text>
<text text-anchor="middle" x="294" y="-85.5" font-family="Helvetica,sans-Serif" font-size="10.00">COOKIE_HOST</text>
<text text-anchor="middle" x="294" y="-74.5" font-family="Helvetica,sans-Serif" font-size="10.00">COOKIE_URL</text>
<text text-anchor="middle" x="294" y="-63.5" font-family="Helvetica,sans-Serif" font-size="10.00">CHROME</text>
<text text-anchor="middle" x="294" y="-52.5" font-family="Helvetica,sans-Serif" font-size="10.00">FIREFOX</text>
<text text-anchor="middle" x="294" y="-41.5" font-family="Helvetica,sans-Serif" font-size="10.00">COOKIE_PATH</text>
</g>
</g>
</svg>
