<?xml version="1.0" encoding="UTF-8" standalone="no"?>
<!DOCTYPE svg PUBLIC "-//W3C//DTD SVG 1.1//EN"
 "http://www.w3.org/Graphics/SVG/1.1/DTD/svg11.dtd">
<!-- Generated by graphviz version 2.36.0 (20140111.2315)
 -->
<!-- Title: nicolive::GetCommPostKey::error Pages: 1 -->
<svg width="466pt" height="38pt"
 viewBox="0.00 0.00 466.00 38.00" xmlns="http://www.w3.org/2000/svg" xmlns:xlink="http://www.w3.org/1999/xlink">
<g id="graph0" class="graph" transform="scale(1 1) rotate(0) translate(4 34)">
<title>nicolive::GetCommPostKey::error</title>
<polygon fill="white" stroke="none" points="-4,4 -4,-34 462,-34 462,4 -4,4"/>
<!-- Node1 -->
<g id="node1" class="node"><title>Node1</title>
<polygon fill="#bfbfbf" stroke="black" points="0,-0 0,-30 138,-30 138,-0 0,-0"/>
<text text-anchor="start" x="8" y="-18" font-family="Helvetica,sans-Serif" font-size="10.00">nicolive::GetCommPostKey</text>
<text text-anchor="middle" x="69" y="-7" font-family="Helvetica,sans-Serif" font-size="10.00">::error</text>
</g>
<!-- Node2 -->
<g id="node2" class="node"><title>Node2</title>
<g id="a_node2"><a xlink:href="classnicolive_1_1LiveWaku.html#a872cdbcd69bd17a43d706ab061a2f3ef" target="_top" xlink:title="コメント送信に必要な PostKey の取得・更新をします。 ">
<polygon fill="white" stroke="black" points="174.5,-0 174.5,-30 273.5,-30 273.5,-0 174.5,-0"/>
<text text-anchor="start" x="182.5" y="-18" font-family="Helvetica,sans-Serif" font-size="10.00">nicolive::LiveWaku</text>
<text text-anchor="middle" x="224" y="-7" font-family="Helvetica,sans-Serif" font-size="10.00">::fetchPostKey</text>
</a>
</g>
</g>
<!-- Node1&#45;&gt;Node2 -->
<g id="edge1" class="edge"><title>Node1&#45;&gt;Node2</title>
<path fill="none" stroke="midnightblue" d="M148.686,-15C157.419,-15 166.113,-15 174.314,-15"/>
<polygon fill="midnightblue" stroke="midnightblue" points="148.445,-11.5001 138.445,-15 148.445,-18.5001 148.445,-11.5001"/>
</g>
<!-- Node3 -->
<g id="node3" class="node"><title>Node3</title>
<g id="a_node3"><a xlink:href="classnicolive_1_1CommentConnection.html#a9eb93f44b510ee11616a4e19ec26f7a3" target="_top" xlink:title="コンストラクタ ">
<polygon fill="white" stroke="black" points="310,-0 310,-30 458,-30 458,-0 310,-0"/>
<text text-anchor="start" x="318" y="-18" font-family="Helvetica,sans-Serif" font-size="10.00">nicolive::CommentConnection</text>
<text text-anchor="middle" x="384" y="-7" font-family="Helvetica,sans-Serif" font-size="10.00">::CommentConnection</text>
</a>
</g>
</g>
<!-- Node2&#45;&gt;Node3 -->
<g id="edge2" class="edge"><title>Node2&#45;&gt;Node3</title>
<path fill="none" stroke="midnightblue" d="M283.823,-15C292.285,-15 301.077,-15 309.776,-15"/>
<polygon fill="midnightblue" stroke="midnightblue" points="283.694,-11.5001 273.694,-15 283.694,-18.5001 283.694,-11.5001"/>
</g>
</g>
</svg>
